<svg width="336" height="425" viewBox="0 0 336 425" fill="none" xmlns="http://www.w3.org/2000/svg">
<g clip-path="url(#clip0_86_562)">
<path d="M326.241 185.7L327.311 182.937C327.42 182.655 327.389 182.338 327.227 182.082L323.472 175.772L325.927 171.668C326.201 171.211 326.052 170.617 325.595 170.343L323.253 168.938C322.796 168.664 322.204 168.814 321.93 169.271L320.764 171.221L319.078 168.388L321.634 164.115C321.908 163.657 321.759 163.064 321.302 162.79L318.961 161.386C318.504 161.111 317.911 161.26 317.638 161.718L316.37 163.837L312.589 157.484C314.617 154.531 316.204 152.185 316.771 151.268C319.58 146.722 319.209 139.791 317.619 139.121C316.279 138.033 310.001 140.977 307.324 145.602C306.784 146.535 305.468 149.043 303.824 152.227L296.446 151.887L297.714 149.767C297.988 149.31 297.84 148.717 297.383 148.443L295.041 147.038C294.584 146.764 293.991 146.913 293.718 147.37L291.161 151.644L287.872 151.492L289.039 149.542C289.312 149.085 289.164 148.492 288.707 148.218L286.364 146.813C285.908 146.539 285.315 146.687 285.041 147.145L282.587 151.249L275.259 150.911C274.957 150.889 274.663 151.011 274.466 151.24L272.539 153.488C272.098 154.003 272.319 154.801 272.962 155.014L298.32 162.986C295.527 168.475 293.009 173.459 292.293 174.868C291.467 176.497 290.776 177.977 290.191 179.321L281.079 179.99C280.855 179.985 280.642 180.079 280.495 180.249L279.548 181.345C279.198 181.75 279.374 182.381 279.883 182.546L288.101 184.786C287.486 186.71 287.28 187.826 287.264 188.038C287.229 188.496 287.281 189.066 287.62 189.27C287.96 189.474 288.486 189.25 288.873 189.003C289.052 188.889 289.938 188.18 291.341 186.73L297.191 192.928C297.576 193.299 298.215 193.157 298.406 192.657L298.925 191.303C299.005 191.094 298.987 190.861 298.877 190.666L295.167 182.306C296.073 181.155 297.051 179.846 298.095 178.349C298.998 177.052 302.197 172.477 305.713 167.421L324.698 186.046C325.189 186.513 325.996 186.331 326.241 185.7Z" fill="#EFF4FA" fill-opacity="0.6"/>
<path d="M0.565796 355.806C0.444122 356.098 0.161667 356.274 -0.135635 356.274C-0.233185 356.274 -0.332336 356.255 -0.427917 356.215C-2.13937 355.5 -3.66931 354.865 -5.10507 354.273C-5.49297 354.113 -5.67805 353.668 -5.51833 353.28C-5.35878 352.891 -4.91496 352.706 -4.52672 352.866C-3.08864 353.459 -1.55658 354.095 0.157196 354.811C0.54454 354.973 0.72731 355.418 0.565796 355.806ZM-9.22404 350.949C-10.8919 350.276 -12.4347 349.662 -13.9405 349.073C-14.3311 348.919 -14.7718 349.113 -14.9246 349.504C-15.0773 349.896 -14.8844 350.337 -14.4937 350.49C-12.9927 351.077 -11.4547 351.689 -9.79185 352.36C-9.69876 352.397 -9.60265 352.415 -9.50812 352.415C-9.20724 352.415 -8.92264 352.235 -8.8033 351.939C-8.64661 351.549 -8.83492 351.106 -9.22404 350.949ZM-78.365 339.71C-79.9787 340.155 -81.6237 340.67 -83.2537 341.24C-83.6498 341.379 -83.8587 341.813 -83.7202 342.21C-83.6108 342.523 -83.3171 342.72 -83.003 342.72C-82.9199 342.72 -82.8354 342.706 -82.7523 342.677C-81.1544 342.118 -79.5426 341.613 -77.9614 341.177C-77.5569 341.065 -77.3193 340.647 -77.4308 340.242C-77.5421 339.837 -77.9598 339.599 -78.365 339.71ZM9.50398 358.738L4.83273 356.772C4.44592 356.609 4.0005 356.791 3.83809 357.179C3.67569 357.566 3.85756 358.012 4.24419 358.174L8.9156 360.14C9.01173 360.181 9.11143 360.2 9.20952 360.2C9.50629 360.2 9.78822 360.025 9.91025 359.733C10.0727 359.346 9.89079 358.9 9.50398 358.738ZM18.8405 362.638C17.2803 361.993 15.7251 361.346 14.1759 360.698C13.7889 360.536 13.3439 360.719 13.1822 361.107C13.0205 361.494 13.2033 361.94 13.5904 362.102C15.1416 362.751 16.6985 363.399 18.2608 364.045C18.3557 364.084 18.4537 364.102 18.5504 364.102C18.8488 364.102 19.132 363.925 19.2529 363.631C19.413 363.243 19.2283 362.798 18.8405 362.638ZM-68.3182 337.738C-69.9863 337.93 -71.6889 338.196 -73.3795 338.53C-73.7911 338.611 -74.0592 339.011 -73.978 339.423C-73.9067 339.786 -73.5891 340.037 -73.2335 340.037C-73.1848 340.037 -73.1354 340.032 -73.0858 340.022C-71.4352 339.697 -69.7729 339.437 -68.1453 339.25C-67.7285 339.202 -67.4292 338.825 -67.4771 338.407C-67.5246 337.99 -67.9007 337.691 -68.3182 337.738ZM28.2086 366.437C26.7015 365.84 25.1668 365.224 23.5168 364.555C23.128 364.397 22.6849 364.584 22.5273 364.974C22.3698 365.363 22.5572 365.807 22.946 365.965C24.5999 366.636 26.1385 367.253 27.6495 367.852C27.7414 367.889 27.8357 367.906 27.9288 367.906C28.2313 367.906 28.5173 367.723 28.6354 367.425C28.7898 367.034 28.5986 366.592 28.2086 366.437ZM37.6513 370.063C36.1181 369.496 34.5261 368.895 32.9189 368.277C32.5269 368.127 32.0878 368.323 31.9375 368.715C31.7871 369.107 31.9827 369.547 32.3744 369.698C33.9872 370.317 35.5854 370.921 37.1244 371.49C37.2112 371.523 37.3002 371.538 37.3878 371.538C37.6967 371.538 37.987 371.348 38.1005 371.041C38.2459 370.647 38.0447 370.209 37.6513 370.063ZM-58.081 337.453C-59.8226 337.36 -61.5459 337.334 -63.201 337.378C-63.6205 337.389 -63.9518 337.738 -63.9409 338.158C-63.9302 338.578 -63.5782 338.91 -63.1619 338.899C-61.5464 338.857 -59.8639 338.882 -58.1619 338.973C-58.1482 338.973 -58.1346 338.974 -58.1208 338.974C-57.7199 338.974 -57.3845 338.659 -57.3629 338.254C-57.3404 337.834 -57.662 337.476 -58.081 337.453ZM-47.9409 338.661C-49.6574 338.355 -51.3558 338.099 -52.9892 337.902C-53.4063 337.85 -53.7842 338.149 -53.8346 338.566C-53.885 338.983 -53.5881 339.362 -53.1716 339.412C-51.5663 339.606 -49.8961 339.857 -48.2077 340.159C-48.1627 340.167 -48.1178 340.171 -48.0735 340.171C-47.7124 340.171 -47.3921 339.912 -47.3265 339.543C-47.2527 339.13 -47.5279 338.735 -47.9409 338.661ZM-37.999 340.905C-39.6824 340.453 -41.346 340.04 -42.9436 339.678C-43.3522 339.584 -43.7596 339.841 -43.8525 340.251C-43.9454 340.661 -43.6889 341.068 -43.2797 341.161C-41.7012 341.52 -40.0567 341.928 -38.3925 342.375C-38.3265 342.393 -38.2604 342.401 -38.1952 342.401C-37.8598 342.401 -37.5529 342.177 -37.462 341.837C-37.3533 341.431 -37.5938 341.014 -37.999 340.905ZM-28.2578 343.848C-29.9099 343.3 -31.5408 342.781 -33.1053 342.306C-33.5063 342.184 -33.931 342.412 -34.0526 342.814C-34.1741 343.216 -33.9472 343.641 -33.5456 343.763C-31.9939 344.233 -30.3759 344.748 -28.7364 345.292C-28.6571 345.319 -28.5763 345.331 -28.497 345.331C-28.1786 345.331 -27.882 345.129 -27.7761 344.81C-27.6439 344.411 -27.8595 343.981 -28.2578 343.848ZM-18.6812 347.253C-20.3223 346.636 -21.9274 346.048 -23.4518 345.504C-23.8472 345.363 -24.2815 345.57 -24.4221 345.966C-24.5628 346.362 -24.3564 346.797 -23.961 346.938C-22.4448 347.478 -20.8481 348.063 -19.2151 348.677C-19.127 348.71 -19.037 348.726 -18.9482 348.726C-18.6407 348.726 -18.3512 348.537 -18.2369 348.232C-18.0895 347.839 -18.2885 347.4 -18.6812 347.253ZM70.631 291.779C69.5304 290.533 68.4829 289.223 67.5169 287.884C67.2712 287.544 66.7961 287.467 66.4561 287.713C66.1161 287.959 66.0395 288.435 66.2853 288.775C67.2803 290.154 68.3594 291.504 69.4929 292.787C69.6432 292.957 69.8522 293.044 70.0623 293.044C70.2412 293.044 70.4209 292.981 70.5653 292.853C70.8795 292.574 70.9088 292.093 70.631 291.779ZM76.5244 381.078C74.8997 380.798 73.2299 380.482 71.561 380.138C71.1522 380.054 70.7484 380.319 70.6639 380.731C70.5794 381.142 70.8442 381.544 71.2553 381.629C72.9399 381.976 74.626 382.295 76.2665 382.578C76.3101 382.585 76.3535 382.589 76.3964 382.589C76.7593 382.589 77.0805 382.327 77.1443 381.957C77.2152 381.543 76.9378 381.149 76.5244 381.078ZM90.1898 209.058C91.7031 208.395 93.2701 207.775 94.8473 207.216C95.2429 207.076 95.45 206.641 95.3099 206.245C95.17 205.849 94.7358 205.641 94.3401 205.782C92.7285 206.353 91.1275 206.987 89.5807 207.664C89.1964 207.832 89.021 208.281 89.1893 208.666C89.314 208.952 89.5931 209.122 89.8856 209.122C89.9874 209.122 90.0909 209.101 90.1898 209.058ZM86.5182 382.438C84.8759 382.277 83.1918 382.079 81.5124 381.85C81.0962 381.794 80.7135 382.085 80.6571 382.501C80.6004 382.917 80.8915 383.301 81.3072 383.358C83.0055 383.59 84.7089 383.79 86.3703 383.953C86.3955 383.955 86.4203 383.956 86.4452 383.956C86.8313 383.956 87.162 383.663 87.2004 383.27C87.2413 382.852 86.9358 382.479 86.5182 382.438ZM81.3557 213.752C82.7484 212.866 84.2038 212.02 85.6821 211.236C86.0526 211.039 86.194 210.579 85.9976 210.208C85.8013 209.836 85.3417 209.695 84.9706 209.891C83.4577 210.694 81.9674 211.561 80.5417 212.467C80.1875 212.692 80.0825 213.162 80.3073 213.517C80.452 213.745 80.698 213.87 80.9494 213.87C81.0886 213.87 81.2295 213.832 81.3557 213.752ZM77.9108 298.586C76.5881 297.559 75.3094 296.471 74.1104 295.352C73.8034 295.065 73.3228 295.082 73.0366 295.389C72.7505 295.697 72.7673 296.178 73.0743 296.465C74.3069 297.616 75.6212 298.734 76.9801 299.788C77.1186 299.896 77.2822 299.948 77.445 299.948C77.6719 299.948 77.8961 299.847 78.0459 299.653C78.3028 299.321 78.2424 298.843 77.9108 298.586ZM66.6258 379.046C65.0223 378.667 63.3721 378.253 61.7209 377.816C61.315 377.709 60.8994 377.951 60.7922 378.357C60.685 378.763 60.9269 379.179 61.3325 379.287C62.9966 379.727 64.6602 380.144 66.2766 380.527C66.3353 380.541 66.3939 380.547 66.4518 380.547C66.7961 380.547 67.1079 380.312 67.1906 379.961C67.2871 379.553 67.0343 379.143 66.6258 379.046ZM58.2358 264.931C57.9736 263.307 57.7709 261.633 57.6337 259.956C57.5996 259.538 57.2333 259.226 56.8145 259.26C56.3965 259.295 56.0851 259.662 56.1194 260.08C56.2598 261.797 56.4672 263.511 56.7359 265.173C56.7961 265.547 57.1188 265.813 57.4849 265.813C57.5253 265.813 57.5662 265.81 57.6073 265.803C58.0213 265.736 58.3028 265.345 58.2358 264.931ZM56.8472 376.462C55.2634 376.002 53.6339 375.509 52.0045 374.997C51.6037 374.871 51.1778 375.095 51.0524 375.495C50.9268 375.896 51.1496 376.323 51.5499 376.449C53.1897 376.964 54.8296 377.46 56.4238 377.923C56.4946 377.943 56.5657 377.953 56.6359 377.953C56.9652 377.953 57.2687 377.737 57.3652 377.405C57.4819 377.001 57.2501 376.579 56.8472 376.462ZM61.4184 235.611C62.1193 234.131 62.9187 232.657 63.7945 231.229C64.0141 230.871 63.9024 230.403 63.5449 230.183C63.1876 229.963 62.7195 230.075 62.5001 230.433C61.5957 231.907 60.77 233.429 60.0457 234.958C59.866 235.338 60.0275 235.792 60.4066 235.972C60.5117 236.022 60.6226 236.045 60.7316 236.045C61.0159 236.046 61.2885 235.885 61.4184 235.611ZM59.2385 269.835C59.137 269.427 58.7247 269.179 58.3175 269.281C57.9105 269.382 57.6627 269.795 57.7643 270.203C58.1808 271.875 58.6723 273.531 59.2253 275.127C59.3341 275.441 59.6284 275.638 59.943 275.638C60.0255 275.638 60.1097 275.625 60.192 275.596C60.5885 275.458 60.7983 275.025 60.6607 274.628C60.1224 273.075 59.6439 271.462 59.2385 269.835ZM47.1916 373.435C45.6425 372.916 44.0331 372.361 42.4081 371.786C42.0125 371.646 41.5786 371.854 41.4387 372.25C41.299 372.646 41.5064 373.081 41.9019 373.221C43.535 373.799 45.1526 374.356 46.7099 374.877C46.7897 374.904 46.871 374.917 46.9509 374.917C47.2687 374.917 47.565 374.716 47.6713 374.397C47.804 373.999 47.5894 373.568 47.1916 373.435ZM72.8835 219.983C73.0646 219.983 73.2462 219.919 73.3914 219.788C74.614 218.686 75.911 217.614 77.2461 216.604C77.581 216.35 77.6471 215.873 77.3941 215.538C77.1411 215.203 76.6644 215.137 76.3301 215.39C74.9601 216.427 73.6294 217.526 72.3748 218.657C72.063 218.938 72.0377 219.419 72.3185 219.731C72.4686 219.898 72.6755 219.983 72.8835 219.983ZM186.71 231.086C186.86 231.251 187.066 231.335 187.272 231.335C187.455 231.335 187.638 231.269 187.783 231.136C188.093 230.853 188.116 230.372 187.833 230.062C186.691 228.806 185.499 227.569 184.29 226.383C183.99 226.089 183.509 226.094 183.216 226.394C182.922 226.694 182.927 227.176 183.227 227.47C184.415 228.635 185.587 229.852 186.71 231.086ZM57.3413 245.612C57.3934 245.623 57.4452 245.628 57.4962 245.628C57.8488 245.628 58.1649 245.381 58.2392 245.021C58.5705 243.42 59.0105 241.806 59.5471 240.224C59.682 239.826 59.4694 239.394 59.072 239.259C58.675 239.125 58.2433 239.337 58.1084 239.735C57.5519 241.376 57.0954 243.051 56.7515 244.713C56.6664 245.124 56.9303 245.527 57.3413 245.612ZM80.9338 301.701C80.706 302.053 80.8068 302.525 81.159 302.753C82.5636 303.663 84.0446 304.541 85.5611 305.364C85.6762 305.426 85.8 305.456 85.9222 305.456C86.1922 305.456 86.4534 305.311 86.5909 305.057C86.7907 304.688 86.6537 304.226 86.2845 304.026C84.8029 303.222 83.356 302.364 81.9847 301.475C81.6319 301.247 81.162 301.348 80.9338 301.701ZM65.5528 227.259C65.6905 227.364 65.8526 227.415 66.0134 227.415C66.2421 227.415 66.4681 227.312 66.6176 227.116C67.6135 225.81 68.6953 224.525 69.8333 223.296C70.1186 222.988 70.1004 222.507 69.7925 222.221C69.4847 221.935 69.0041 221.953 68.7189 222.262C67.5485 223.526 66.435 224.848 65.4099 226.193C65.1554 226.527 65.2194 227.004 65.5528 227.259ZM61.5081 278.89C61.1265 279.064 60.9584 279.515 61.1326 279.898C61.844 281.458 62.6371 282.994 63.4897 284.464C63.6308 284.707 63.8855 284.843 64.1474 284.843C64.2769 284.843 64.4082 284.81 64.5283 284.74C64.8912 284.529 65.0143 284.063 64.8036 283.7C63.9759 282.273 63.2056 280.781 62.5147 279.266C62.3405 278.883 61.8903 278.715 61.5081 278.89ZM183.438 304.042C181.907 304.751 180.357 305.436 178.829 306.076C178.442 306.239 178.26 306.684 178.422 307.072C178.544 307.363 178.826 307.539 179.123 307.539C179.221 307.539 179.321 307.52 179.417 307.479C180.961 306.832 182.529 306.14 184.076 305.423C184.457 305.247 184.623 304.795 184.447 304.413C184.271 304.032 183.819 303.866 183.438 304.042ZM207.339 270.738C207.693 272.37 208 274.032 208.25 275.676C208.308 276.053 208.632 276.322 209 276.322C209.039 276.322 209.077 276.32 209.116 276.314C209.531 276.25 209.816 275.862 209.752 275.447C209.497 273.771 209.185 272.078 208.824 270.415C208.734 270.004 208.331 269.743 207.92 269.833C207.51 269.922 207.25 270.327 207.339 270.738ZM208.849 280.662C208.994 282.328 209.087 284.015 209.125 285.676C209.134 286.09 209.472 286.42 209.884 286.42C209.89 286.42 209.895 286.42 209.902 286.419C210.321 286.41 210.653 286.062 210.644 285.642C210.606 283.948 210.511 282.228 210.362 280.529C210.326 280.11 209.957 279.8 209.539 279.838C209.121 279.875 208.812 280.243 208.849 280.662ZM198.432 247.352C198.571 247.601 198.83 247.741 199.095 247.741C199.221 247.741 199.349 247.71 199.466 247.644C199.832 247.438 199.962 246.975 199.757 246.608C198.929 245.129 198.047 243.653 197.134 242.223C196.908 241.869 196.438 241.765 196.085 241.991C195.731 242.217 195.628 242.688 195.854 243.042C196.75 244.448 197.618 245.898 198.432 247.352ZM206.124 265.865C206.218 266.2 206.523 266.419 206.855 266.419C206.923 266.419 206.992 266.41 207.061 266.39C207.465 266.276 207.7 265.856 207.586 265.452C207.126 263.821 206.609 262.18 206.05 260.574C205.912 260.177 205.478 259.967 205.082 260.106C204.686 260.244 204.477 260.678 204.615 261.075C205.165 262.653 205.672 264.264 206.124 265.865ZM196.544 298.038C196.686 298.279 196.939 298.412 197.199 298.412C197.33 298.412 197.463 298.378 197.584 298.307C199.029 297.453 200.49 296.56 201.927 295.651C202.281 295.427 202.387 294.957 202.163 294.602C201.939 294.247 201.47 294.14 201.115 294.365C199.692 295.265 198.244 296.151 196.812 296.996C196.451 297.21 196.331 297.676 196.544 298.038ZM-105.926 352.876C-107.311 353.806 -108.715 354.789 -110.1 355.798C-110.439 356.046 -110.514 356.521 -110.267 356.861C-110.118 357.066 -109.887 357.174 -109.652 357.174C-109.497 357.174 -109.34 357.127 -109.205 357.028C-107.837 356.031 -106.449 355.059 -105.08 354.139C-104.731 353.905 -104.638 353.433 -104.872 353.084C-105.106 352.735 -105.578 352.642 -105.926 352.876ZM-114.165 358.875C-115.481 359.907 -116.812 360.988 -118.122 362.087C-118.443 362.357 -118.486 362.837 -118.216 363.159C-118.066 363.339 -117.85 363.431 -117.633 363.431C-117.461 363.431 -117.288 363.373 -117.146 363.254C-115.849 362.165 -114.53 361.094 -113.228 360.072C-112.898 359.813 -112.84 359.335 -113.099 359.004C-113.357 358.674 -113.835 358.616 -114.165 358.875ZM-121.973 365.424C-123.226 366.544 -124.487 367.705 -125.722 368.876C-126.027 369.164 -126.04 369.646 -125.752 369.951C-125.602 370.109 -125.402 370.189 -125.2 370.189C-125.013 370.189 -124.825 370.12 -124.678 369.981C-123.454 368.82 -122.204 367.669 -120.962 366.56C-120.649 366.28 -120.622 365.799 -120.901 365.485C-121.18 365.172 -121.661 365.145 -121.973 365.424ZM-97.2197 347.55C-98.6801 348.355 -100.165 349.219 -101.634 350.119C-101.992 350.338 -102.104 350.806 -101.885 351.165C-101.742 351.399 -101.492 351.529 -101.236 351.529C-101.101 351.529 -100.965 351.493 -100.841 351.417C-99.3918 350.529 -97.9269 349.676 -96.4868 348.882C-96.1193 348.68 -95.9853 348.217 -96.1877 347.849C-96.3902 347.481 -96.8522 347.347 -97.2197 347.55ZM-129.37 372.433C-130.561 373.627 -131.755 374.857 -132.919 376.09C-133.207 376.395 -133.193 376.876 -132.888 377.165C-132.741 377.304 -132.554 377.373 -132.367 377.373C-132.165 377.373 -131.964 377.293 -131.815 377.135C-130.66 375.912 -129.476 374.692 -128.295 373.508C-127.999 373.211 -127.999 372.729 -128.296 372.432C-128.593 372.135 -129.074 372.135 -129.37 372.433ZM-88.023 343.078C-89.5619 343.725 -91.1297 344.436 -92.6826 345.193C-93.0598 345.377 -93.2169 345.832 -93.0332 346.21C-92.9017 346.481 -92.631 346.638 -92.3494 346.638C-92.238 346.638 -92.1247 346.613 -92.0176 346.561C-90.4899 345.817 -88.9482 345.117 -87.435 344.481C-87.0482 344.319 -86.8662 343.873 -87.0286 343.485C-87.1908 343.098 -87.6358 342.915 -88.023 343.078ZM-141.878 387.51C-142.206 387.248 -142.684 387.302 -142.946 387.631C-144.033 388.997 -145.081 390.357 -146.059 391.674C-146.309 392.012 -146.24 392.488 -145.903 392.739C-145.767 392.84 -145.608 392.889 -145.45 392.889C-145.218 392.889 -144.989 392.783 -144.84 392.582C-143.872 391.279 -142.835 389.932 -141.758 388.579C-141.496 388.25 -141.55 387.772 -141.878 387.51ZM-159.898 412.818C-161.942 415.176 -163.336 416.227 -163.379 416.259C-163.717 416.508 -163.789 416.984 -163.54 417.322C-163.392 417.525 -163.161 417.632 -162.928 417.632C-162.772 417.632 -162.614 417.584 -162.478 417.484C-162.417 417.439 -160.941 416.342 -158.75 413.815C-158.475 413.498 -158.509 413.017 -158.826 412.742C-159.143 412.466 -159.623 412.5 -159.898 412.818ZM-153.118 404.378C-153.481 404.167 -153.946 404.29 -154.157 404.653C-155.017 406.135 -155.921 407.555 -156.843 408.876C-157.084 409.22 -157 409.694 -156.656 409.935C-156.523 410.028 -156.371 410.072 -156.221 410.072C-155.982 410.072 -155.746 409.959 -155.598 409.748C-154.652 408.393 -153.725 406.936 -152.844 405.419C-152.633 405.055 -152.756 404.589 -153.118 404.378ZM-136.366 379.842C-137.5 381.11 -138.625 382.404 -139.711 383.689C-139.982 384.009 -139.942 384.49 -139.622 384.761C-139.479 384.882 -139.305 384.941 -139.131 384.941C-138.916 384.941 -138.701 384.849 -138.551 384.672C-137.474 383.398 -136.358 382.115 -135.234 380.857C-134.954 380.544 -134.981 380.063 -135.293 379.783C-135.606 379.503 -136.086 379.529 -136.366 379.842ZM-147.967 395.637C-148.314 395.401 -148.786 395.492 -149.022 395.84C-150.14 397.493 -151.058 398.961 -151.751 400.203C-151.955 400.57 -151.824 401.034 -151.458 401.238C-151.341 401.304 -151.213 401.335 -151.088 401.335C-150.822 401.335 -150.563 401.195 -150.424 400.945C-149.762 399.758 -148.842 398.288 -147.764 396.693C-147.528 396.346 -147.619 395.873 -147.967 395.637ZM56.6507 255.713C56.6528 255.713 56.6552 255.713 56.6573 255.713C57.0768 255.709 57.414 255.366 57.4106 254.945C57.409 254.751 57.4081 254.556 57.4081 254.362C57.4081 253.213 57.4365 252.04 57.4926 250.876C57.5074 250.565 57.5265 250.25 57.5494 249.939C57.5803 249.52 57.2662 249.156 56.8478 249.125C56.4294 249.094 56.065 249.408 56.0341 249.827C56.0104 250.151 55.9903 250.479 55.9748 250.803C55.9176 251.991 55.8887 253.189 55.8887 254.362C55.8887 254.561 55.8894 254.759 55.8912 254.958C55.8946 255.376 56.2341 255.713 56.6507 255.713ZM99.6254 205.707C101.217 205.263 102.856 204.865 104.496 204.523C104.907 204.438 105.17 204.035 105.085 203.624C105 203.212 104.597 202.948 104.187 203.034C102.514 203.382 100.842 203.788 99.2182 204.241C98.8139 204.353 98.5775 204.773 98.6899 205.177C98.7833 205.514 99.0887 205.734 99.4215 205.734C99.4887 205.735 99.5573 205.725 99.6254 205.707ZM204.226 255.797C203.576 254.235 202.869 252.667 202.125 251.137C201.941 250.76 201.486 250.603 201.109 250.786C200.732 250.97 200.575 251.426 200.759 251.803C201.49 253.307 202.184 254.848 202.823 256.382C202.945 256.675 203.227 256.851 203.525 256.851C203.622 256.851 203.721 256.832 203.817 256.792C204.204 256.631 204.387 256.185 204.226 255.797ZM206.471 309.909C206.073 309.779 205.644 309.997 205.514 310.396C205.331 310.959 205.137 311.53 204.939 312.091C204.58 313.108 204.203 314.13 203.817 315.132C203.666 315.523 203.861 315.964 204.253 316.115C204.343 316.15 204.435 316.166 204.526 316.166C204.831 316.166 205.119 315.981 205.235 315.679C205.626 314.664 206.008 313.628 206.371 312.598C206.574 312.025 206.771 311.443 206.958 310.868C207.088 310.468 206.87 310.039 206.471 309.909ZM202.905 319.397C202.52 319.228 202.072 319.404 201.904 319.788C201.232 321.325 200.518 322.861 199.783 324.354C199.598 324.731 199.752 325.187 200.129 325.373C200.237 325.426 200.351 325.451 200.464 325.451C200.744 325.451 201.014 325.295 201.146 325.027C201.891 323.514 202.615 321.957 203.296 320.399C203.464 320.014 203.289 319.565 202.905 319.397ZM208.846 300.055C208.432 299.981 208.038 300.255 207.963 300.669C207.667 302.309 207.311 303.959 206.905 305.574C206.802 305.982 207.049 306.395 207.455 306.498C207.518 306.514 207.58 306.521 207.642 306.521C207.982 306.521 208.291 306.291 208.378 305.946C208.793 304.298 209.156 302.613 209.458 300.939C209.533 300.526 209.259 300.13 208.846 300.055ZM198.488 328.518C198.121 328.315 197.659 328.448 197.456 328.816C196.649 330.279 195.798 331.739 194.927 333.156C194.708 333.514 194.819 333.982 195.176 334.203C195.3 334.279 195.438 334.316 195.574 334.316C195.829 334.316 196.078 334.187 196.222 333.954C197.105 332.517 197.967 331.036 198.786 329.552C198.989 329.184 198.855 328.721 198.488 328.518ZM210.545 288.905C210.301 288.563 209.826 288.484 209.485 288.728C208.112 289.71 206.717 290.678 205.34 291.606C204.992 291.841 204.899 292.313 205.134 292.662C205.368 293.01 205.84 293.103 206.188 292.868C207.143 292.225 208.105 291.563 209.064 290.89C208.99 292.495 208.863 294.113 208.686 295.702C208.64 296.119 208.94 296.495 209.357 296.542C209.386 296.545 209.414 296.547 209.442 296.547C209.824 296.547 210.153 296.259 210.196 295.87C210.384 294.184 210.516 292.466 210.59 290.764C210.603 290.472 210.451 290.212 210.216 290.074C210.267 290.038 210.317 290.002 210.368 289.966C210.709 289.722 210.788 289.247 210.545 288.905ZM179.317 352.77C178.125 353.939 176.888 355.093 175.639 356.201C175.325 356.48 175.296 356.96 175.574 357.275C175.725 357.445 175.934 357.531 176.144 357.531C176.323 357.531 176.502 357.468 176.647 357.34C177.914 356.215 179.17 355.044 180.38 353.857C180.68 353.563 180.685 353.082 180.391 352.782C180.098 352.481 179.617 352.476 179.317 352.77ZM175.671 220.866C176.985 221.887 178.288 222.961 179.544 224.059C179.688 224.185 179.866 224.246 180.043 224.246C180.255 224.246 180.465 224.158 180.616 223.986C180.891 223.669 180.859 223.189 180.543 222.913C179.266 221.796 177.94 220.703 176.603 219.664C176.272 219.407 175.794 219.467 175.537 219.799C175.28 220.13 175.34 220.608 175.671 220.866ZM186.136 345.386C185.064 346.668 183.948 347.938 182.818 349.162C182.534 349.47 182.552 349.951 182.86 350.237C183.006 350.372 183.192 350.439 183.376 350.439C183.58 350.439 183.784 350.357 183.934 350.195C185.08 348.953 186.214 347.664 187.301 346.362C187.571 346.04 187.528 345.56 187.207 345.291C186.885 345.021 186.405 345.064 186.136 345.386ZM193.251 337.173C192.905 336.936 192.432 337.025 192.195 337.372C191.253 338.752 190.267 340.125 189.264 341.452C189.01 341.787 189.076 342.264 189.411 342.518C189.548 342.622 189.709 342.672 189.869 342.672C190.098 342.672 190.326 342.568 190.475 342.37C191.493 341.024 192.494 339.631 193.45 338.23C193.687 337.884 193.598 337.41 193.251 337.173ZM191.162 233.936C190.897 233.61 190.419 233.56 190.094 233.825C189.768 234.09 189.718 234.569 189.983 234.895C191.033 236.19 192.059 237.532 193.034 238.885C193.182 239.091 193.415 239.2 193.651 239.2C193.804 239.2 193.96 239.153 194.094 239.056C194.435 238.81 194.511 238.335 194.266 237.994C193.274 236.619 192.23 235.253 191.162 233.936ZM193.462 299.794C193.261 299.425 192.799 299.29 192.431 299.492C190.952 300.304 189.452 301.095 187.973 301.844C187.598 302.034 187.448 302.491 187.637 302.866C187.771 303.131 188.038 303.284 188.316 303.284C188.431 303.284 188.548 303.258 188.658 303.202C190.153 302.445 191.668 301.646 193.161 300.827C193.529 300.625 193.664 300.162 193.462 299.794ZM217.538 282.639C216.22 283.691 214.878 284.733 213.551 285.737C213.216 285.99 213.15 286.467 213.403 286.802C213.552 287 213.779 287.104 214.009 287.104C214.169 287.104 214.33 287.055 214.467 286.951C215.804 285.939 217.156 284.889 218.484 283.83C218.813 283.568 218.867 283.089 218.605 282.761C218.344 282.432 217.866 282.377 217.538 282.639ZM266.096 230.36C265.749 230.125 265.276 230.218 265.042 230.566C264.106 231.955 263.142 233.356 262.176 234.73C261.934 235.074 262.016 235.548 262.359 235.79C262.492 235.884 262.645 235.929 262.796 235.929C263.034 235.929 263.27 235.817 263.418 235.606C264.39 234.224 265.36 232.814 266.302 231.416C266.536 231.068 266.444 230.595 266.096 230.36ZM276.655 213.046C276.289 212.841 275.826 212.973 275.622 213.34C274.811 214.795 273.968 216.272 273.115 217.729C272.903 218.092 273.024 218.558 273.386 218.77C273.507 218.841 273.639 218.875 273.77 218.875C274.03 218.875 274.284 218.74 274.426 218.499C275.284 217.032 276.133 215.546 276.949 214.081C277.153 213.714 277.022 213.25 276.655 213.046ZM271.559 221.815C271.201 221.595 270.733 221.706 270.514 222.064C269.637 223.491 268.732 224.93 267.822 226.344C267.595 226.697 267.696 227.168 268.049 227.395C268.177 227.477 268.319 227.517 268.46 227.517C268.709 227.517 268.954 227.393 269.099 227.168C270.015 225.745 270.926 224.297 271.808 222.861C272.028 222.504 271.916 222.035 271.559 221.815ZM225.275 276.148C224.013 277.26 222.724 278.368 221.446 279.441C221.124 279.711 221.082 280.191 221.351 280.513C221.502 280.692 221.717 280.785 221.934 280.785C222.106 280.785 222.279 280.727 222.422 280.608C223.709 279.527 225.007 278.411 226.278 277.29C226.593 277.013 226.624 276.532 226.347 276.217C226.07 275.901 225.59 275.871 225.275 276.148ZM285.644 194.867C285.261 194.698 284.812 194.871 284.642 195.256C283.97 196.781 283.265 198.327 282.547 199.853C282.368 200.233 282.531 200.687 282.911 200.866C283.015 200.915 283.125 200.938 283.234 200.938C283.519 200.938 283.792 200.777 283.922 200.502C284.645 198.964 285.355 197.406 286.032 195.87C286.202 195.486 286.028 195.037 285.644 194.867ZM281.362 204.061C280.987 203.873 280.53 204.025 280.342 204.401C279.595 205.896 278.818 207.408 278.032 208.896C277.836 209.268 277.978 209.728 278.349 209.925C278.462 209.985 278.583 210.013 278.703 210.013C278.975 210.013 279.239 209.866 279.375 209.608C280.167 208.109 280.949 206.587 281.701 205.081C281.889 204.706 281.737 204.249 281.362 204.061ZM239.778 262.138C238.623 263.358 237.442 264.578 236.267 265.765C235.972 266.063 235.974 266.545 236.272 266.841C236.42 266.988 236.613 267.061 236.807 267.061C237.002 267.061 237.198 266.986 237.346 266.836C238.529 265.641 239.718 264.413 240.881 263.185C241.169 262.881 241.157 262.399 240.852 262.11C240.548 261.821 240.067 261.834 239.778 262.138ZM260.278 238.685C259.94 238.437 259.465 238.509 259.216 238.847C258.22 240.203 257.196 241.567 256.174 242.9C255.919 243.233 255.981 243.711 256.314 243.967C256.452 244.073 256.615 244.124 256.776 244.124C257.004 244.124 257.23 244.022 257.379 243.826C258.408 242.485 259.437 241.113 260.44 239.749C260.688 239.411 260.616 238.934 260.278 238.685ZM232.679 269.311C231.472 270.478 230.239 271.643 229.015 272.773C228.707 273.058 228.687 273.539 228.972 273.848C229.122 274.011 229.326 274.093 229.531 274.093C229.715 274.093 229.899 274.026 230.045 273.892C231.278 272.754 232.519 271.581 233.735 270.406C234.036 270.114 234.045 269.632 233.754 269.33C233.462 269.028 232.981 269.019 232.679 269.311ZM246.571 254.657C245.464 255.928 244.335 257.199 243.213 258.435C242.931 258.746 242.954 259.227 243.264 259.51C243.41 259.642 243.593 259.707 243.775 259.707C243.982 259.707 244.188 259.624 244.337 259.458C245.466 258.215 246.603 256.936 247.716 255.657C247.992 255.34 247.959 254.859 247.642 254.583C247.326 254.307 246.846 254.34 246.571 254.657ZM254.12 246.769C253.792 246.506 253.314 246.559 253.052 246.887C252.001 248.2 250.924 249.519 249.851 250.807C249.581 251.129 249.624 251.609 249.946 251.878C250.089 251.997 250.261 252.055 250.433 252.055C250.65 252.055 250.866 251.962 251.017 251.782C252.097 250.487 253.181 249.16 254.238 247.838C254.5 247.51 254.447 247.032 254.12 246.769ZM154.956 370.406C153.479 371.174 151.96 371.918 150.441 372.617C150.06 372.793 149.893 373.245 150.068 373.626C150.196 373.905 150.471 374.07 150.759 374.07C150.865 374.07 150.973 374.047 151.076 374C152.617 373.29 154.158 372.535 155.656 371.757C156.029 371.563 156.174 371.104 155.98 370.731C155.787 370.358 155.329 370.213 154.956 370.406ZM124.723 316.001C125.112 316.001 125.443 315.704 125.479 315.309C125.516 314.89 125.208 314.52 124.79 314.483C123.099 314.331 121.415 314.15 119.784 313.946C119.368 313.897 118.988 314.19 118.936 314.607C118.884 315.024 119.18 315.404 119.596 315.456C121.244 315.662 122.945 315.844 124.654 315.998C124.677 316 124.7 316.001 124.723 316.001ZM126.596 380.436C124.97 380.776 123.306 381.088 121.651 381.364C121.237 381.432 120.957 381.824 121.026 382.239C121.087 382.611 121.409 382.875 121.774 382.875C121.815 382.875 121.857 382.871 121.899 382.864C123.576 382.586 125.26 382.27 126.907 381.925C127.317 381.839 127.58 381.436 127.495 381.025C127.409 380.613 127.005 380.349 126.596 380.436ZM116.671 382.087C115.023 382.293 113.339 382.469 111.665 382.612C111.247 382.647 110.937 383.016 110.973 383.434C111.006 383.831 111.339 384.131 111.729 384.131C111.75 384.131 111.772 384.13 111.794 384.128C113.487 383.984 115.191 383.805 116.859 383.597C117.275 383.545 117.571 383.165 117.519 382.748C117.467 382.331 117.085 382.037 116.671 382.087ZM119.431 202.846C121.081 202.809 122.771 202.818 124.452 202.875C124.461 202.875 124.469 202.875 124.478 202.875C124.886 202.875 125.223 202.551 125.237 202.14C125.251 201.72 124.922 201.368 124.503 201.354C123.478 201.32 122.444 201.302 121.429 201.302C120.758 201.303 120.069 201.31 119.397 201.325C118.978 201.334 118.645 201.682 118.655 202.103C118.664 202.517 119.002 202.846 119.414 202.846C119.419 202.846 119.425 202.846 119.431 202.846ZM134.815 316.587C134.82 316.588 134.825 316.588 134.831 316.588C135.243 316.588 135.581 316.257 135.59 315.843C135.599 315.422 135.265 315.075 134.846 315.066C134.33 315.056 133.804 315.04 133.282 315.02C132.121 314.976 130.954 314.92 129.815 314.853C129.394 314.828 129.036 315.149 129.012 315.569C128.988 315.988 129.308 316.348 129.727 316.372C130.876 316.439 132.053 316.496 133.224 316.54C133.755 316.561 134.29 316.576 134.815 316.587ZM134.461 203.739C134.496 203.744 134.532 203.746 134.566 203.746C134.94 203.746 135.265 203.47 135.318 203.089C135.375 202.673 135.084 202.289 134.669 202.232C132.979 201.998 131.273 201.806 129.598 201.661C129.179 201.622 128.812 201.934 128.776 202.353C128.739 202.772 129.049 203.14 129.467 203.177C131.117 203.32 132.797 203.509 134.461 203.739ZM114.682 314.74C115.048 314.74 115.37 314.476 115.431 314.103C115.498 313.688 115.218 313.297 114.803 313.229C113.132 312.955 111.468 312.647 109.86 312.313C109.45 312.227 109.047 312.492 108.962 312.903C108.876 313.315 109.14 313.717 109.551 313.802C111.181 314.141 112.865 314.453 114.558 314.73C114.6 314.737 114.641 314.74 114.682 314.74ZM104.777 312.676C105.115 312.676 105.424 312.448 105.512 312.105C105.616 311.698 105.371 311.283 104.965 311.179C103.321 310.756 101.697 310.294 100.137 309.805C99.7374 309.679 99.3099 309.903 99.1848 310.304C99.0596 310.705 99.2825 311.131 99.6829 311.257C101.268 311.754 102.918 312.223 104.587 312.652C104.651 312.668 104.714 312.676 104.777 312.676ZM136.342 377.952C134.752 378.433 133.122 378.886 131.496 379.3C131.09 379.403 130.844 379.817 130.947 380.225C131.035 380.569 131.344 380.798 131.683 380.798C131.745 380.798 131.808 380.79 131.871 380.774C133.518 380.355 135.17 379.896 136.781 379.409C137.183 379.287 137.41 378.863 137.289 378.461C137.167 378.058 136.744 377.831 136.342 377.952ZM96.5727 383.046C94.9124 383.004 93.2188 382.931 91.5388 382.831C91.1151 382.807 90.7601 383.125 90.7351 383.545C90.7099 383.964 91.0292 384.324 91.448 384.349C93.1454 384.451 94.8564 384.524 96.5339 384.567C96.5405 384.567 96.5471 384.567 96.5536 384.567C96.9641 384.567 97.302 384.239 97.3127 383.826C97.3235 383.406 96.9922 383.057 96.5727 383.046ZM109.435 203.659C111.071 203.425 112.749 203.238 114.42 203.103C114.838 203.07 115.15 202.703 115.116 202.284C115.082 201.865 114.715 201.553 114.297 201.587C112.596 201.725 110.887 201.915 109.22 202.153C108.805 202.212 108.516 202.597 108.576 203.013C108.629 203.393 108.954 203.667 109.326 203.667C109.362 203.667 109.398 203.664 109.435 203.659ZM106.643 382.943C104.981 383.02 103.288 383.068 101.609 383.085C101.19 383.089 100.853 383.433 100.857 383.854C100.862 384.271 101.201 384.607 101.617 384.607C101.62 384.607 101.622 384.607 101.625 384.607C103.322 384.589 105.034 384.541 106.713 384.462C107.132 384.443 107.456 384.087 107.437 383.667C107.417 383.247 107.056 382.922 106.643 382.943ZM154.175 208.646C154.481 208.646 154.77 208.459 154.885 208.156C155.034 207.763 154.837 207.323 154.445 207.174C152.858 206.57 151.233 206.008 149.617 205.503C149.215 205.378 148.79 205.601 148.665 206.002C148.541 206.403 148.764 206.83 149.164 206.955C150.752 207.451 152.347 208.003 153.905 208.596C153.994 208.63 154.085 208.646 154.175 208.646ZM163.394 212.809C163.667 212.809 163.931 212.66 164.067 212.401C164.262 212.029 164.119 211.57 163.748 211.374C162.246 210.585 160.704 209.831 159.163 209.136C158.78 208.963 158.33 209.134 158.158 209.517C157.985 209.9 158.156 210.35 158.538 210.523C160.052 211.206 161.567 211.946 163.041 212.721C163.154 212.78 163.275 212.809 163.394 212.809ZM163.64 365.344C162.243 366.253 160.802 367.14 159.36 367.981C158.997 368.192 158.874 368.658 159.085 369.021C159.226 369.264 159.481 369.399 159.742 369.399C159.872 369.399 160.004 369.366 160.124 369.296C161.588 368.442 163.049 367.542 164.467 366.62C164.819 366.391 164.919 365.92 164.691 365.567C164.462 365.215 163.992 365.115 163.64 365.344ZM164.591 311.081C162.973 311.539 161.335 311.963 159.723 312.343C159.315 312.439 159.061 312.848 159.157 313.257C159.24 313.608 159.551 313.844 159.896 313.844C159.954 313.844 160.012 313.837 160.071 313.824C161.705 313.439 163.365 313.008 165.004 312.545C165.408 312.43 165.643 312.01 165.529 311.606C165.415 311.201 164.995 310.967 164.591 311.081ZM171.794 359.445C170.494 360.488 169.147 361.514 167.791 362.495C167.451 362.741 167.374 363.217 167.62 363.557C167.768 363.763 168.001 363.873 168.236 363.873C168.39 363.873 168.546 363.826 168.68 363.728C170.057 362.733 171.424 361.691 172.744 360.633C173.071 360.37 173.124 359.891 172.862 359.563C172.599 359.235 172.121 359.182 171.794 359.445ZM172.051 218.038C172.293 218.038 172.531 217.922 172.678 217.708C172.915 217.361 172.827 216.888 172.482 216.65C171.083 215.689 169.64 214.758 168.192 213.883C167.833 213.665 167.366 213.781 167.149 214.141C166.932 214.5 167.048 214.968 167.407 215.185C168.83 216.045 170.248 216.96 171.621 217.904C171.753 217.994 171.903 218.038 172.051 218.038ZM95.1267 309.642C95.4337 309.642 95.7228 309.455 95.8377 309.15C95.986 308.757 95.788 308.318 95.3953 308.17C93.8121 307.571 92.255 306.925 90.7673 306.251C90.3846 306.077 89.9351 306.247 89.7619 306.63C89.5888 307.012 89.7582 307.463 90.1405 307.637C91.6576 308.325 93.245 308.983 94.8586 309.593C94.9468 309.627 95.0376 309.642 95.1267 309.642ZM145.826 374.612C144.285 375.236 142.703 375.834 141.122 376.39C140.726 376.53 140.518 376.964 140.657 377.36C140.767 377.673 141.061 377.869 141.374 377.869C141.458 377.869 141.543 377.855 141.626 377.826C143.228 377.262 144.833 376.655 146.395 376.023C146.784 375.865 146.972 375.422 146.815 375.032C146.658 374.643 146.215 374.455 145.826 374.612ZM145.688 315.431C145.652 315.012 145.283 314.701 144.866 314.738C143.201 314.881 141.518 314.98 139.863 315.035C139.443 315.049 139.115 315.401 139.129 315.821C139.142 316.232 139.479 316.556 139.888 316.556C139.896 316.556 139.905 316.556 139.913 316.556C141.594 316.5 143.304 316.399 144.995 316.254C145.414 316.218 145.724 315.85 145.688 315.431ZM174.149 307.935C172.572 308.527 170.975 309.089 169.402 309.607C169.004 309.739 168.787 310.169 168.918 310.568C169.023 310.888 169.32 311.091 169.639 311.091C169.718 311.091 169.798 311.079 169.877 311.053C171.469 310.528 173.086 309.959 174.682 309.36C175.075 309.213 175.274 308.775 175.127 308.381C174.98 307.988 174.543 307.788 174.149 307.935ZM155.083 314.877C155.496 314.8 155.767 314.403 155.69 313.99C155.614 313.577 155.218 313.304 154.804 313.381C153.154 313.69 151.485 313.96 149.844 314.184C149.428 314.241 149.137 314.624 149.194 315.041C149.246 315.422 149.572 315.699 149.946 315.699C149.98 315.699 150.015 315.696 150.05 315.691C151.715 315.463 153.408 315.19 155.083 314.877ZM140.994 204.855C142.108 205.081 143.231 205.333 144.333 205.605C144.394 205.62 144.456 205.628 144.516 205.628C144.857 205.628 145.167 205.396 145.253 205.049C145.353 204.641 145.104 204.229 144.697 204.128C143.575 203.851 142.43 203.594 141.297 203.364C140.767 203.256 140.231 203.151 139.704 203.053C139.292 202.975 138.895 203.247 138.817 203.66C138.74 204.073 139.012 204.471 139.424 204.548C139.943 204.645 140.472 204.749 140.994 204.855Z" fill="#EFF4FA" fill-opacity="0.6"/>
</g>
<defs>
<clipPath id="clip0_86_562">
<rect width="536" height="425" fill="white" transform="translate(-200)"/>
</clipPath>
</defs>
</svg>
