<svg width="291" height="100" viewBox="0 0 291 100" fill="none" xmlns="http://www.w3.org/2000/svg">
<g clip-path="url(#clip0_2719_2197)">
<path d="M125.14 41.9582H110.879L112.996 31.8436H125.654L126.786 26.154H114.187L116.054 17.2743H130.153L131.241 11.5995H110.012L102.426 47.6477H123.919L125.154 41.9729L125.14 41.9582ZM0 47.6477H21.4937L22.7286 41.9729H8.4681L10.5851 31.8583H23.2432L24.3752 26.1687H11.7759L13.6283 17.289H27.7271L28.8151 11.6142H7.586L0 47.6477ZM99.9559 11.5995H92.414L84.828 47.6477H92.3699L99.9706 11.5995H99.9559Z" fill="#004A99"/>
<path d="M85.1808 0H38.8709L27.0361 54.8515L27.0949 54.5722C35.4601 58.865 42.017 66.1423 45.369 75.0074C50.4998 75.1691 55.3807 76.3599 59.7912 78.4034C62.6433 74.3017 66.2893 70.788 70.4939 68.0829M69.3325 73.449C66.9509 75.3896 64.8338 77.6536 63.0403 80.1529C64.5104 81.0203 65.9365 81.9759 67.2596 83.0344M55.3807 11.5995H63.3931L69.95 47.6478H62.7168L61.4819 39.3855H46.1335L41.5319 47.6478H33.5195L55.366 11.5995H55.3807Z" fill="#77B82B"/>
<path d="M17.2891 100H42.0318C43.3549 96.354 44.1194 92.4287 44.1194 88.327C44.1194 84.2252 43.4137 80.4469 42.1494 76.8597C33.696 77.3743 26.0659 80.888 20.2441 86.3275" fill="#77B82B"/>
<path d="M20.8909 83.2844C26.5804 78.6387 33.6665 75.6689 41.4289 75.0809C38.4151 67.9359 33.0491 61.9965 26.2863 58.2917" fill="#77B82B"/>
<path d="M58.2181 17.9947H58.0123L49.3384 33.696H60.4969L58.2181 17.9947Z" fill="#77B82B"/>
<path d="M46.0012 76.8745C47.1479 80.491 47.7948 84.3282 47.7948 88.327C47.7948 92.3258 47.1332 96.3099 45.9424 100H52.9697C52.9697 92.6345 55.0868 85.7689 58.7327 79.9618C54.8221 78.1829 50.5146 77.1097 45.9865 76.8745H46.0012Z" fill="#77B82B"/>
<path d="M66.8333 85.0338C65.3338 83.7695 63.7313 82.6374 62.0259 81.6377C58.6446 86.945 56.6746 93.2373 56.6746 100H63.599" fill="#77B82B"/>
<path d="M26.2864 58.277L27.0362 54.8515L26.2864 58.277Z" fill="white"/>
<path d="M84.9898 67.142H93.6343V68.9797H87.0333V72.0082H92.8845V73.8459H87.0333V76.9774H93.7078V78.8151H84.9751V67.1567L84.9898 67.142Z" fill="#004A99"/>
<path d="M93.796 78.8738H84.9898L84.9163 67.142L93.6343 67.0685L93.7078 68.9797L87.0333 69.0532L87.1068 72.0082L92.8845 71.9347L92.958 73.8459L87.0333 73.9194L87.1068 76.9773L93.7225 76.9038L93.796 78.8885V78.8738ZM93.5608 67.142L84.9898 67.2155L85.0633 78.815L93.649 78.7415V76.9773L87.0333 77.0508L86.9598 73.8459L92.8845 73.7724L92.811 72.0082L87.0333 72.0817L86.9598 68.9797L93.6343 68.9062L93.5608 67.142Z" fill="#004A99"/>
<path d="M95.6484 75.6101V70.0088H97.6626V75.0074C97.6626 76.3746 98.3388 77.1538 99.5444 77.1538C100.75 77.1538 101.529 76.3305 101.529 74.9633V69.9941H103.543V78.8004H101.529V77.4331C100.956 78.2711 100.147 78.9768 98.7799 78.9768C96.7952 78.9768 95.6484 77.6389 95.6484 75.5954V75.6101Z" fill="#004A99"/>
<path d="M98.7799 79.065C96.8099 79.065 95.575 77.7419 95.575 75.6102V70.0089L97.6626 69.9354L97.7361 75.0074C97.7361 76.3305 98.3976 77.0803 99.5444 77.0803C100.691 77.0803 101.456 76.257 101.456 74.9633V69.9942L103.543 69.9207L103.617 78.8004L101.529 78.8739L101.456 77.4331C100.868 78.5358 99.9413 79.0503 98.7799 79.0503V79.065ZM97.5891 70.0089L95.6485 70.0824L95.722 75.6102C95.722 77.6537 96.8981 78.918 98.7799 78.918C99.9119 78.918 100.765 78.4329 101.47 77.4037L101.603 78.8151L103.543 78.7416L103.47 70.0089L101.529 70.0824L101.603 74.978C101.603 76.3452 100.794 77.242 99.5444 77.242C98.2947 77.242 97.5891 76.4334 97.5891 75.0221V70.0236V70.0089Z" fill="#004A99"/>
<path d="M105.91 70.0089H107.924V71.9936C108.468 70.6851 109.497 69.7736 111.041 69.8471V71.9789H110.923C109.159 71.9789 107.924 73.1256 107.924 75.4631V78.8151H105.91V70.0089Z" fill="#004A99"/>
<path d="M107.998 78.8739H105.91L105.836 69.9941L107.924 69.9206L107.998 71.9788C108.277 70.9497 109.144 69.7589 110.879 69.7589H111.041L111.114 72.0377H110.923C109.056 72.0377 107.998 73.2873 107.998 75.4484V78.8739ZM107.851 69.9941L105.91 70.0676L105.983 78.8004L107.851 78.7269V75.4484C107.851 73.2285 108.997 71.8906 110.923 71.8906L110.967 69.8324L110.879 69.9059C109.218 69.9059 108.394 71.0526 107.983 72.0082L107.836 69.9941H107.851Z" fill="#004A99"/>
<path d="M111.835 74.4487V74.4193C111.835 71.9054 113.834 69.8177 116.539 69.8177C119.244 69.8177 121.229 71.8612 121.229 74.3752V74.4046C121.229 76.9039 119.23 78.9915 116.51 78.9915C113.79 78.9915 111.849 76.948 111.849 74.4487H111.835ZM119.2 74.4487V74.4193C119.2 72.8757 118.083 71.5819 116.51 71.5819C114.937 71.5819 113.864 72.8463 113.864 74.3752V74.4046C113.864 75.9336 114.981 77.242 116.539 77.242C118.098 77.242 119.2 75.963 119.2 74.4487Z" fill="#004A99"/>
<path d="M116.51 79.0797C113.849 79.0797 111.776 77.0509 111.776 74.4634C111.776 71.8759 113.878 69.7589 116.554 69.7589C119.23 69.7589 121.317 71.8024 121.317 74.3899C121.317 76.9774 119.215 79.0797 116.524 79.0797H116.51ZM116.539 69.8912C113.952 69.8912 111.908 71.8759 111.908 74.4193C111.908 76.9627 113.922 78.9327 116.495 78.9327C119.068 78.9327 121.141 76.948 121.141 74.4193C121.141 71.8906 119.112 69.8912 116.524 69.8912H116.539ZM116.539 77.3155C114.996 77.3155 113.79 76.0365 113.79 74.4046C113.79 72.7727 114.937 71.4937 116.51 71.4937C118.083 71.4937 119.274 72.7433 119.274 74.4046C119.274 76.0659 118.127 77.3155 116.539 77.3155ZM116.51 71.6554C115.01 71.6554 113.937 72.8021 113.937 74.3752C113.937 75.9483 115.084 77.1685 116.539 77.1685C117.995 77.1685 119.127 76.0218 119.127 74.4487C119.127 72.8756 117.995 71.6554 116.495 71.6554H116.51Z" fill="#004A99"/>
<path d="M123.096 70.0088H125.11V71.479C125.757 70.5675 126.683 69.8324 128.095 69.8324C130.182 69.8324 132.196 71.479 132.196 74.3899V74.4193C132.196 77.3302 130.197 78.9768 128.095 78.9768C126.639 78.9768 125.728 78.2417 125.11 77.4331V81.4613H123.096V69.9941V70.0088ZM130.153 74.4193V74.3899C130.153 72.6845 129.006 71.5672 127.639 71.5672C126.272 71.5672 125.066 72.6992 125.066 74.3899V74.4193C125.066 76.1246 126.272 77.242 127.639 77.242C129.006 77.242 130.153 76.1541 130.153 74.4193Z" fill="#004A99"/>
<path d="M125.184 81.5496H123.096L123.023 70.0088L125.11 69.9353L125.184 71.479C125.86 70.3029 126.845 69.7589 128.095 69.7589C130.168 69.7589 132.27 71.3467 132.27 74.3899C132.27 77.4331 130.168 79.065 128.095 79.065C126.845 79.065 125.86 78.5504 125.052 77.4919L125.184 81.5496ZM125.037 70.0088L123.096 70.0823L123.17 81.4761L125.037 81.4025V77.4478C125.948 78.4328 126.904 78.918 128.095 78.918C130.094 78.918 132.123 77.3743 132.123 74.4193C132.123 71.4643 130.094 69.8912 128.095 69.8912C126.904 69.8912 125.948 70.4205 125.169 71.5084L125.037 69.9941V70.0088ZM127.624 77.3155C126.125 77.3155 124.978 76.0806 124.978 74.4193C124.978 72.758 126.139 71.4937 127.624 71.4937C129.109 71.4937 130.212 72.7286 130.212 74.3899C130.212 76.0512 129.124 77.3155 127.624 77.3155ZM127.624 71.6554C126.198 71.6554 125.125 72.8315 125.125 74.4046C125.125 75.9777 126.198 77.1832 127.624 77.1832C129.05 77.1832 130.065 76.0365 130.065 74.434C130.065 72.8315 129.021 71.6554 127.624 71.6554Z" fill="#004A99"/>
<path d="M133.608 74.434V74.4046C133.608 71.8907 135.387 69.8177 137.901 69.8177C140.694 69.8177 142.12 72.023 142.12 74.5516C142.12 74.7281 142.105 74.9192 142.09 75.1103H135.622C135.842 76.551 136.857 77.3449 138.15 77.3449C139.135 77.3449 139.841 76.9774 140.532 76.3011L141.723 77.3449C140.885 78.3446 139.738 78.9915 138.121 78.9915C135.578 78.9915 133.608 77.1391 133.608 74.4193V74.434ZM140.12 73.7872C139.988 72.4934 139.224 71.4643 137.886 71.4643C136.651 71.4643 135.783 72.4199 135.607 73.7872H140.12Z" fill="#004A99"/>
<path d="M138.121 79.0797C135.46 79.0797 133.534 77.1244 133.534 74.434C133.534 71.7436 135.416 69.7442 137.901 69.7442C140.87 69.7442 142.193 72.1552 142.193 74.5516C142.193 74.728 142.193 74.8897 142.164 75.0809L135.622 75.1985C135.901 76.4481 136.842 77.2861 138.15 77.2861C139.047 77.2861 139.738 76.9774 140.473 76.257L141.752 77.3008C140.841 78.521 139.606 79.0797 138.106 79.0797H138.121ZM137.901 69.8912C135.489 69.8912 133.681 71.8318 133.681 74.4046C133.681 76.9774 135.548 78.9327 138.121 78.9327C139.577 78.9327 140.767 78.3887 141.664 77.3155L140.488 76.3746C139.826 77.1244 139.091 77.4478 138.15 77.4478C136.754 77.4478 135.754 76.5657 135.548 75.1544L142.09 75.0662C142.032 74.9044 142.046 74.7427 142.046 74.581C142.046 72.2582 140.767 69.9206 137.901 69.9206V69.8912ZM135.592 73.8606C135.71 72.3317 136.636 71.4055 137.871 71.4055C139.106 71.4055 140.032 72.317 140.179 73.7871L135.592 73.8606ZM137.871 71.5378C136.71 71.5378 135.842 72.4199 135.666 73.7871L140.106 73.6989C139.885 72.3905 139.062 71.5231 137.871 71.5231V71.5378Z" fill="#004A99"/>
<path d="M149.368 78.8004V77.7125C148.765 78.4328 147.854 78.9768 146.516 78.9768C144.854 78.9768 143.384 78.0212 143.384 76.257V76.2276C143.384 74.2723 144.899 73.3461 146.957 73.3461C148.03 73.3461 148.706 73.4931 149.383 73.7136V73.5519C149.383 72.3317 148.618 71.6701 147.221 71.6701C146.236 71.6701 145.501 71.8906 144.707 72.2141L144.163 70.5969C145.134 70.1706 146.075 69.8618 147.515 69.8618C150.118 69.8618 151.382 71.2291 151.382 73.5813V78.8004H149.383H149.368ZM149.427 75.1103C148.912 74.9045 148.192 74.7574 147.413 74.7574C146.148 74.7574 145.398 75.272 145.398 76.1247V76.1541C145.398 76.9921 146.148 77.4478 147.104 77.4478C148.442 77.4478 149.441 76.6981 149.441 75.5954V75.0956L149.427 75.1103Z" fill="#004A99"/>
<path d="M146.516 79.065C144.972 79.065 143.311 78.1976 143.311 76.2717C143.311 74.3458 144.678 73.2873 146.957 73.2873C148.03 73.2873 148.706 73.4343 149.412 73.6548L149.324 73.5666C149.324 72.3758 148.603 71.7583 147.236 71.7583C146.251 71.7583 145.531 71.9789 144.752 72.3023L144.105 70.641C145.134 70.1118 146.089 69.8177 147.515 69.8177C150.088 69.8177 151.455 71.1262 151.455 73.6107V78.8298L149.383 78.9033L149.309 77.7419C148.736 78.6387 147.721 79.0797 146.53 79.0797L146.516 79.065ZM146.957 73.4343C144.766 73.4343 143.458 74.4781 143.458 76.2423C143.458 78.0947 144.987 78.918 146.516 78.918C147.662 78.918 148.633 78.4917 149.309 77.6831L149.441 78.8151L151.367 78.7416L151.294 73.596C151.294 71.2144 149.985 69.95 147.501 69.95C146.089 69.95 145.148 70.2441 144.178 70.6704L144.766 72.1994C145.472 71.8171 146.207 71.5966 147.221 71.5966C148.662 71.5966 149.456 72.2876 149.456 73.5519V73.7136C148.677 73.5666 148.001 73.4196 146.957 73.4196V73.4343ZM147.089 77.5508C146.031 77.5508 145.31 77.0068 145.31 76.1835C145.31 75.2426 146.089 74.7133 147.398 74.7133C148.118 74.7133 148.853 74.8457 149.441 75.0662L149.485 75.6395C149.485 76.7569 148.471 77.5655 147.074 77.5655L147.089 77.5508ZM147.398 74.8457C146.178 74.8457 145.457 75.3308 145.457 76.1394C145.457 77.0215 146.281 77.4037 147.089 77.4037C148.398 77.4037 149.353 76.654 149.353 75.6248V75.125C148.839 74.978 148.103 74.8457 147.413 74.8457H147.398Z" fill="#004A99"/>
<path d="M153.587 70.0088H155.601V71.376C156.175 70.5381 156.983 69.8324 158.35 69.8324C160.335 69.8324 161.482 71.1702 161.482 73.2137V78.815H159.468V73.8165C159.468 72.4493 158.792 71.6701 157.586 71.6701C156.38 71.6701 155.601 72.4934 155.601 73.8606V78.8297H153.587V70.0235V70.0088Z" fill="#004A99"/>
<path d="M161.57 78.8739H159.482L159.409 73.8018C159.409 72.4787 158.747 71.7289 157.601 71.7289C156.454 71.7289 155.689 72.5522 155.689 73.8459V78.8151L153.602 78.8886L153.528 70.0088L155.616 69.9353L155.689 71.3761C156.292 70.2588 157.189 69.7589 158.365 69.7589C160.335 69.7589 161.57 71.082 161.57 73.2138V78.8886V78.8739ZM157.601 71.5819C158.85 71.5819 159.556 72.3905 159.556 73.8018V78.8004L161.423 78.7269V73.1991C161.423 71.1556 160.247 69.8912 158.365 69.8912C157.233 69.8912 156.38 70.3764 155.675 71.4055L155.542 69.9941L153.602 70.0676L153.675 78.8004L155.616 78.7269L155.542 73.8312C155.542 72.464 156.351 71.5672 157.601 71.5672V71.5819Z" fill="#004A99"/>
<path d="M172.949 67.0538H174.846L179.976 78.8004H177.815L176.624 75.9777H171.111L169.906 78.8004H167.803L172.934 67.0538H172.949ZM175.889 74.1694L173.875 69.509L171.876 74.1694H175.889Z" fill="#004A99"/>
<path d="M180.094 78.8738H177.815L176.566 76.007L171.112 76.0511L169.979 78.8297L167.818 78.8738L172.89 67.0244L174.86 66.9803L180.109 78.8738H180.094ZM174.787 67.0832L172.949 67.1273L167.877 78.8297L169.906 78.7268L171.038 75.9482L176.625 75.9041L177.874 78.7709L179.859 78.7268L174.772 67.0832H174.787ZM171.876 74.2429L173.875 69.3178L175.963 74.1399L171.876 74.2429ZM173.875 69.6854L171.935 74.1988L175.89 74.0958L173.875 69.6854Z" fill="#004A99"/>
<path d="M180.859 77.6536L181.755 76.2864C182.711 77.0068 183.74 77.3743 184.637 77.3743C185.534 77.3743 186.004 77.0068 186.004 76.4187V76.3893C186.004 75.713 185.063 75.4778 184.034 75.1544C182.74 74.7868 181.285 74.2576 181.285 72.5669V72.5375C181.285 70.8762 182.667 69.8471 184.416 69.8471C185.519 69.8471 186.725 70.2293 187.651 70.8468L186.857 72.2876C186.004 71.773 185.107 71.4496 184.372 71.4496C183.593 71.4496 183.137 71.8171 183.137 72.3317V72.3611C183.137 72.9932 184.093 73.2579 185.122 73.596C186.401 73.993 187.857 74.581 187.857 76.1688V76.1982C187.857 78.0506 186.416 78.9621 184.593 78.9621C183.343 78.9621 181.961 78.5063 180.859 77.6389V77.6536Z" fill="#004A99"/>
<path d="M184.593 79.0503C183.27 79.0503 181.888 78.5651 180.814 77.7125L181.697 76.2423C182.711 76.9186 183.725 77.2861 184.637 77.2861C185.445 77.2861 185.931 76.9627 185.931 76.404C185.931 75.7866 185.137 75.5513 184.225 75.272L184.019 75.2132C182.667 74.8309 181.211 74.2723 181.211 72.5522C181.211 70.8321 182.535 69.7589 184.416 69.7589C185.504 69.7589 186.724 70.1411 187.695 70.7733L186.916 72.3023C184.975 71.3026 183.211 71.332 183.211 72.3023C183.211 72.8756 184.034 73.1403 184.975 73.449L185.151 73.5078C186.592 73.9636 187.93 74.5957 187.93 76.1394C187.93 77.9183 186.651 79.0062 184.593 79.0062V79.0503ZM181.711 76.3599L180.917 77.7125C181.946 78.4475 183.299 78.918 184.593 78.918C186.563 78.918 187.783 77.8889 187.783 76.2276C187.783 74.6692 186.401 74.0959 185.107 73.6989L184.931 73.6401C183.931 73.3167 183.064 73.0374 183.064 72.3905C183.064 71.2144 185.019 71.1115 186.886 72.2435L187.577 70.8321C186.666 70.3176 185.475 69.9353 184.402 69.9353C182.593 69.9353 181.344 71.0085 181.344 72.5522C181.344 74.1988 182.74 74.728 184.034 75.0956L184.24 75.1544C185.21 75.4484 186.048 75.6983 186.048 76.3893C186.048 77.0803 185.504 77.4478 184.607 77.4478C183.652 77.4478 182.623 77.0656 181.682 76.3452L181.711 76.3599Z" fill="#004A99"/>
<path d="M188.856 77.6536L189.753 76.2864C190.709 77.0068 191.738 77.3743 192.634 77.3743C193.531 77.3743 194.002 77.0068 194.002 76.4187V76.3893C194.002 75.713 193.076 75.4778 192.032 75.1544C190.738 74.7868 189.283 74.2576 189.283 72.5669V72.5375C189.283 70.8762 190.664 69.8471 192.414 69.8471C193.517 69.8471 194.722 70.2293 195.648 70.8468L194.854 72.2876C194.002 71.773 193.105 71.4496 192.37 71.4496C191.591 71.4496 191.135 71.8171 191.135 72.3317V72.3611C191.135 72.9932 192.091 73.2579 193.12 73.596C194.399 73.993 195.854 74.581 195.854 76.1688V76.1982C195.854 78.0506 194.413 78.9621 192.59 78.9621C191.341 78.9621 189.959 78.5063 188.856 77.6389V77.6536Z" fill="#004A99"/>
<path d="M192.576 79.0503C191.253 79.0503 189.871 78.5651 188.797 77.7125L189.679 76.2423C190.694 76.9186 191.708 77.2861 192.62 77.2861C193.428 77.2861 193.913 76.9627 193.913 76.404C193.913 75.7866 193.12 75.5513 192.208 75.272L192.002 75.2132C190.65 74.8309 189.194 74.2723 189.194 72.5522C189.194 70.8321 190.517 69.7589 192.399 69.7589C193.487 69.7589 194.707 70.1411 195.678 70.7733L194.899 72.3023C192.958 71.3026 191.194 71.3467 191.194 72.3023C191.194 72.8756 192.017 73.1403 192.958 73.449L193.134 73.5078C194.575 73.9636 195.913 74.5957 195.913 76.1394C195.913 77.9183 194.634 79.0062 192.576 79.0062V79.0503ZM189.694 76.3599L188.9 77.7125C189.929 78.4475 191.282 78.918 192.576 78.918C194.546 78.918 195.766 77.8889 195.766 76.2276C195.766 74.6692 194.384 74.0959 193.09 73.6989L192.914 73.6401C191.914 73.3167 191.047 73.0374 191.047 72.3905C191.047 71.2144 193.002 71.1115 194.869 72.2435L195.56 70.8321C194.649 70.3176 193.458 69.9353 192.385 69.9353C190.576 69.9353 189.327 71.0085 189.327 72.5522C189.327 74.1988 190.723 74.728 192.017 75.0956L192.223 75.1544C193.193 75.4484 194.031 75.6983 194.031 76.3893C194.031 77.0803 193.487 77.4478 192.59 77.4478C191.649 77.4478 190.606 77.0656 189.665 76.3452L189.694 76.3599Z" fill="#004A99"/>
<path d="M197.236 74.4487V74.4193C197.236 71.9054 199.235 69.8177 201.941 69.8177C204.646 69.8177 206.63 71.8612 206.63 74.3752V74.4046C206.63 76.9039 204.631 78.9915 201.911 78.9915C199.191 78.9915 197.251 76.948 197.251 74.4487H197.236ZM204.602 74.4487V74.4193C204.602 72.8757 203.484 71.5819 201.896 71.5819C200.309 71.5819 199.25 72.8463 199.25 74.3752V74.4046C199.25 75.9336 200.368 77.242 201.941 77.242C203.514 77.242 204.602 75.963 204.602 74.4487Z" fill="#004A99"/>
<path d="M201.911 79.0797C199.25 79.0797 197.177 77.0509 197.177 74.4634C197.177 71.8759 199.28 69.7589 201.955 69.7589C204.631 69.7589 206.719 71.8024 206.719 74.3899C206.719 76.9774 204.616 79.0797 201.926 79.0797H201.911ZM201.941 69.8912C199.353 69.8912 197.31 71.8759 197.31 74.4193C197.31 76.9627 199.324 78.9327 201.896 78.9327C204.469 78.9327 206.542 76.948 206.542 74.4193C206.542 71.8906 204.513 69.8912 201.926 69.8912H201.941ZM201.941 77.3155C200.397 77.3155 199.191 76.0365 199.191 74.4046C199.191 72.7727 200.338 71.4937 201.911 71.4937C203.484 71.4937 204.69 72.7433 204.69 74.4046C204.69 76.0659 203.543 77.3155 201.955 77.3155H201.941ZM201.911 71.6554C200.412 71.6554 199.338 72.8021 199.338 74.3752C199.338 75.9483 200.485 77.1685 201.955 77.1685C203.425 77.1685 204.543 76.0218 204.543 74.4487C204.543 72.8756 203.411 71.6554 201.911 71.6554Z" fill="#004A99"/>
<path d="M208.012 74.4487V74.4193C208.012 71.9201 209.938 69.8177 212.585 69.8177C214.246 69.8177 215.29 70.4352 216.098 71.332L214.849 72.6845C214.231 72.0377 213.584 71.5819 212.57 71.5819C211.1 71.5819 210.041 72.8463 210.041 74.3752V74.4046C210.041 75.963 211.129 77.242 212.673 77.242C213.628 77.242 214.319 76.7863 214.952 76.1394L216.172 77.3449C215.304 78.3152 214.29 78.9915 212.57 78.9915C209.953 78.9915 208.027 76.948 208.027 74.4487H208.012Z" fill="#004A99"/>
<path d="M212.57 79.0797C209.982 79.0797 207.954 77.0509 207.954 74.4634C207.954 71.8759 209.997 69.7589 212.599 69.7589C214.099 69.7589 215.201 70.2294 216.172 71.3026L214.922 72.758C214.29 72.1994 213.643 71.6848 212.585 71.6848C211.203 71.6848 210.129 72.8756 210.129 74.4046C210.129 76.0071 211.232 77.1979 212.688 77.1979C213.496 77.1979 214.187 76.8598 214.922 76.1247L216.245 77.3302C215.51 78.2564 214.496 79.1091 212.599 79.1091L212.57 79.0797ZM212.585 69.8912C210.071 69.8912 208.086 71.8759 208.086 74.4193C208.086 76.9627 210.056 78.9327 212.555 78.9327C214.393 78.9327 215.378 78.1094 216.098 77.3155L214.878 76.2129C214.231 76.9921 213.511 77.3302 212.643 77.3302C211.1 77.3302 209.938 76.0806 209.938 74.4193C209.938 72.758 211.085 71.5084 212.541 71.5084C213.658 71.5084 214.319 72.0524 214.878 72.6404L216.025 71.2879C215.084 70.3617 214.025 69.8912 212.57 69.8912H212.585Z" fill="#004A99"/>
<path d="M217.877 66.7303H220.038V68.6415H217.877V66.7303ZM217.965 69.9941H219.979V78.8003H217.965V69.9941Z" fill="#004A99"/>
<path d="M220.053 78.8739H217.965L217.892 69.9941L219.979 69.9206L220.053 78.8592V78.8739ZM219.906 69.9941L217.965 70.0676L218.039 78.8004L219.906 78.7269V69.9941ZM220.126 68.7151H217.892L217.818 66.7304L220.053 66.6569L220.126 68.7151ZM219.979 66.7304L217.892 66.8039L217.965 68.6416L219.979 68.5681V66.7304Z" fill="#004A99"/>
<path d="M227.815 78.8004V77.7125C227.213 78.4328 226.301 78.9768 224.963 78.9768C223.302 78.9768 221.832 78.0212 221.832 76.257V76.2276C221.832 74.2723 223.346 73.3461 225.404 73.3461C226.477 73.3461 227.154 73.4931 227.845 73.7136V73.5519C227.845 72.3317 227.08 71.6701 225.684 71.6701C224.699 71.6701 223.964 71.8906 223.17 72.2141L222.626 70.5969C223.596 70.1706 224.537 69.8618 225.978 69.8618C228.58 69.8618 229.844 71.2291 229.844 73.5813V78.8004H227.845H227.815ZM227.859 75.1103C227.345 74.9045 226.624 74.7574 225.845 74.7574C224.581 74.7574 223.831 75.272 223.831 76.1247V76.1541C223.831 76.9921 224.581 77.4478 225.537 77.4478C226.874 77.4478 227.874 76.6981 227.874 75.5954V75.0956L227.859 75.1103Z" fill="#004A99"/>
<path d="M224.978 79.065C223.434 79.065 221.773 78.1976 221.773 76.2717C221.773 74.3458 223.14 73.2873 225.419 73.2873C226.492 73.2873 227.169 73.4343 227.874 73.6548L227.786 73.5666C227.786 72.3758 227.066 71.7583 225.698 71.7583C224.713 71.7583 223.993 71.9789 223.214 72.3023L222.567 70.641C223.596 70.1118 224.552 69.8177 225.992 69.8177C228.565 69.8177 229.932 71.1262 229.932 73.6107V78.8298L227.86 78.9033L227.786 77.7419C227.213 78.6387 226.198 79.0797 225.007 79.0797L224.978 79.065ZM225.404 73.4343C223.214 73.4343 221.905 74.4781 221.905 76.2423C221.905 78.0947 223.449 78.918 224.963 78.918C226.125 78.918 227.066 78.5064 227.757 77.6831L227.889 78.8151L229.815 78.7416L229.741 73.596C229.741 71.2144 228.433 69.95 225.948 69.95C224.537 69.95 223.596 70.2441 222.626 70.6704L223.214 72.1994C223.919 71.8171 224.655 71.5966 225.654 71.5966C227.095 71.5966 227.889 72.2876 227.889 73.5519V73.7136C227.11 73.5666 226.433 73.4196 225.375 73.4196L225.404 73.4343ZM225.537 77.5508C224.478 77.5508 223.758 77.0068 223.758 76.1835C223.758 75.2426 224.537 74.7133 225.845 74.7133C226.566 74.7133 227.301 74.8457 227.889 75.0662L227.933 75.6395C227.933 76.7569 226.919 77.5655 225.522 77.5655L225.537 77.5508ZM225.86 74.8457C224.64 74.8457 223.919 75.3308 223.919 76.1394C223.919 77.0215 224.743 77.4037 225.551 77.4037C226.86 77.4037 227.815 76.654 227.815 75.6248V75.125C227.301 74.978 226.566 74.8457 225.875 74.8457H225.86Z" fill="#004A99"/>
<path d="M232.388 76.3746V71.7436H231.27V70.0088H232.388V67.5977H234.402V70.0088H236.769V71.7436H234.402V76.0658C234.402 76.845 234.799 77.1685 235.49 77.1685C235.945 77.1685 236.342 77.0655 236.739 76.8597V78.5063C236.239 78.7856 235.666 78.962 234.916 78.962C233.431 78.962 232.388 78.3152 232.388 76.3746Z" fill="#004A99"/>
<path d="M234.916 79.0209C233.181 79.0209 232.314 78.1241 232.314 76.3599V71.7289L231.27 71.8024L231.197 69.9941L232.388 69.9206L232.314 67.583L234.402 67.5095L234.475 69.9941L236.769 69.9206L236.842 71.7289L234.402 71.8024L234.475 76.0511C234.475 76.7568 234.799 77.0803 235.49 77.0803C235.916 77.0803 236.298 76.992 236.71 76.7862L236.813 78.5063C236.225 78.8885 235.637 79.0356 234.916 79.0356V79.0209ZM232.388 71.6554L232.461 76.3599C232.461 78.0506 233.27 78.8738 234.916 78.8738C235.593 78.8738 236.166 78.7268 236.695 78.4328L236.651 76.845C236.342 77.1244 235.931 77.2126 235.475 77.2126C234.71 77.2126 234.314 76.8156 234.314 76.0364V71.7142L236.754 71.6407L236.68 69.9794L234.387 70.0529L234.314 67.5683L232.373 67.6419L232.446 69.9794L231.256 70.0529L231.329 71.7142L232.373 71.6407L232.388 71.6554Z" fill="#004A99"/>
<path d="M238.665 66.7303H240.826V68.6415H238.665V66.7303ZM238.753 69.9941H240.767V78.8003H238.753V69.9941Z" fill="#004A99"/>
<path d="M240.841 78.8739H238.753L238.68 69.9941L240.767 69.9206L240.841 78.8592V78.8739ZM240.694 69.9941L238.753 70.0676L238.827 78.8004L240.694 78.7269V69.9941ZM240.9 68.7151H238.665L238.592 66.7304L240.826 66.6569L240.9 68.7151ZM240.753 66.7304L238.665 66.8039L238.739 68.6416L240.753 68.5681V66.7304Z" fill="#004A99"/>
<path d="M242.737 74.4487V74.4193C242.737 71.9054 244.737 69.8177 247.442 69.8177C250.147 69.8177 252.117 71.8612 252.117 74.3752V74.4046C252.117 76.9039 250.118 78.9915 247.398 78.9915C244.678 78.9915 242.737 76.948 242.737 74.4487ZM250.103 74.4487V74.4193C250.103 72.8757 248.986 71.5819 247.398 71.5819C245.81 71.5819 244.752 72.8463 244.752 74.3752V74.4046C244.752 75.9336 245.869 77.242 247.442 77.242C249.015 77.242 250.103 75.963 250.103 74.4487Z" fill="#004A99"/>
<path d="M247.413 79.0797C244.752 79.0797 242.679 77.0509 242.679 74.4634C242.679 71.8759 244.781 69.7589 247.457 69.7589C250.132 69.7589 252.205 71.8024 252.205 74.3899C252.205 76.9774 250.103 79.0797 247.413 79.0797ZM247.442 69.8912C244.855 69.8912 242.811 71.8759 242.811 74.4193C242.811 76.9627 244.825 78.9327 247.398 78.9327C249.971 78.9327 252.044 76.948 252.044 74.4193C252.044 71.8906 250.015 69.8912 247.442 69.8912ZM247.442 77.3155C245.898 77.3155 244.693 76.0365 244.693 74.4046C244.693 72.7727 245.84 71.4937 247.413 71.4937C248.986 71.4937 250.191 72.7433 250.191 74.4046C250.191 76.0659 249.044 77.3155 247.457 77.3155H247.442ZM247.413 71.6554C245.928 71.6554 244.84 72.8021 244.84 74.3752C244.84 75.9483 245.987 77.1685 247.457 77.1685C248.927 77.1685 250.044 76.0218 250.044 74.4487C250.044 72.8756 248.912 71.6554 247.413 71.6554Z" fill="#004A99"/>
<path d="M253.999 70.0088H256.013V71.376C256.572 70.5381 257.395 69.8324 258.762 69.8324C260.747 69.8324 261.894 71.1702 261.894 73.2137V78.815H259.879V73.8165C259.879 72.4493 259.188 71.6701 257.998 71.6701C256.807 71.6701 256.013 72.4934 256.013 73.8606V78.8297H253.999V70.0235V70.0088Z" fill="#004A99"/>
<path d="M261.982 78.8739H259.894L259.821 73.8018C259.821 72.4787 259.159 71.7289 258.012 71.7289C256.866 71.7289 256.101 72.5522 256.101 73.8459V78.8151L254.014 78.8886L253.94 70.0088L256.028 69.9353L256.101 71.3761C256.689 70.2735 257.601 69.7589 258.777 69.7589C260.762 69.7589 261.982 71.082 261.982 73.2138V78.8886V78.8739ZM258.012 71.5819C259.262 71.5819 259.968 72.3905 259.968 73.8018V78.8004L261.835 78.7269V73.1991C261.835 71.1556 260.659 69.8912 258.777 69.8912C257.645 69.8912 256.792 70.3764 256.087 71.4055L255.954 69.9941L254.014 70.0676L254.087 78.8004L256.028 78.7269L255.954 73.8312C255.954 72.464 256.763 71.5672 258.012 71.5672V71.5819Z" fill="#004A99"/>
<path d="M269.435 71.7436H268.318V70.0676H269.435V69.4354C269.435 68.4504 269.685 67.7154 270.156 67.2449C270.626 66.7745 271.273 66.5392 272.141 66.5392C272.832 66.5392 273.317 66.6421 273.772 66.7745V68.4798C273.375 68.3475 273.023 68.2593 272.596 68.2593C271.832 68.2593 271.435 68.671 271.435 69.5972V70.0823H273.772V71.7436H271.479V78.815H269.465V71.7436H269.435Z" fill="#004A99"/>
<path d="M271.538 78.8739H269.45L269.377 71.7289L268.333 71.8024L268.259 70.0529L269.45 69.9794L269.377 69.4208C269.377 68.4211 269.627 67.6713 270.112 67.1861C270.597 66.701 271.258 66.4658 272.14 66.4658C272.89 66.4658 273.405 66.5834 273.787 66.701L273.846 68.4652C273.361 68.4064 273.023 68.3182 272.596 68.3182C271.846 68.3182 271.508 68.7151 271.508 69.5825V70.0676L273.772 69.9941L273.846 71.7289L271.479 71.8024L271.552 78.8739H271.538ZM269.45 71.6554L269.524 78.8004L271.391 78.7269V71.7289L273.758 71.6554L273.684 70.0676L271.42 70.1411L271.347 69.5825C271.347 68.6563 271.758 68.1711 272.582 68.1711C273.037 68.1711 273.39 68.2594 273.787 68.3917L273.684 66.7598C273.361 66.7157 272.861 66.5981 272.126 66.5981C271.288 66.5981 270.656 66.8186 270.2 67.2743C269.744 67.7301 269.509 68.4505 269.509 69.4061V70.0382L268.318 70.1117L268.392 71.7289L269.435 71.6554H269.45Z" fill="#004A99"/>
<path d="M274.434 74.4487V74.4193C274.434 71.9054 276.433 69.8177 279.138 69.8177C281.844 69.8177 283.828 71.8612 283.828 74.3752V74.4046C283.828 76.9039 281.829 78.9915 279.109 78.9915C276.389 78.9915 274.449 76.948 274.449 74.4487H274.434ZM281.799 74.4487V74.4193C281.799 72.8757 280.682 71.5819 279.109 71.5819C277.536 71.5819 276.463 72.8463 276.463 74.3752V74.4046C276.463 75.9336 277.58 77.242 279.138 77.242C280.697 77.242 281.799 75.963 281.799 74.4487Z" fill="#004A99"/>
<path d="M279.109 79.0797C276.448 79.0797 274.375 77.0509 274.375 74.4634C274.375 71.8759 276.478 69.7589 279.153 69.7589C281.829 69.7589 283.917 71.8024 283.917 74.3899C283.917 76.9774 281.814 79.0797 279.124 79.0797H279.109ZM279.139 69.8912C276.551 69.8912 274.508 71.8759 274.508 74.4193C274.508 76.9627 276.522 78.9327 279.094 78.9327C281.667 78.9327 283.74 76.948 283.74 74.4193C283.74 71.8906 281.711 69.8912 279.124 69.8912H279.139ZM279.139 77.3155C277.595 77.3155 276.389 76.0365 276.389 74.4046C276.389 72.7727 277.536 71.4937 279.109 71.4937C280.682 71.4937 281.873 72.7433 281.873 74.4046C281.873 76.0659 280.726 77.3155 279.139 77.3155ZM279.109 71.6554C277.61 71.6554 276.536 72.8021 276.536 74.3752C276.536 75.9483 277.683 77.1685 279.139 77.1685C280.594 77.1685 281.726 76.0218 281.726 74.4487C281.726 72.8756 280.594 71.6554 279.094 71.6554H279.109Z" fill="#004A99"/>
<path d="M285.695 70.0089H287.71V71.9936C288.253 70.6851 289.283 69.7736 290.826 69.8471V71.9789H290.709C288.944 71.9789 287.71 73.1256 287.71 75.4631V78.8151H285.695V70.0089Z" fill="#004A99"/>
<path d="M287.783 78.8739H285.695L285.622 69.9941L287.709 69.9206L287.783 71.9788C288.062 70.9497 288.93 69.7589 290.664 69.7589H290.826L290.9 72.0377H290.709C288.856 72.0377 287.783 73.2873 287.783 75.4484V78.8739ZM287.636 69.9941L285.695 70.0676L285.769 78.8004L287.636 78.7269V75.4484C287.636 73.2285 288.783 71.8906 290.709 71.8906L290.753 69.8324L290.664 69.9059C289.003 69.9059 288.18 71.0526 287.783 72.0082L287.636 69.9941Z" fill="#004A99"/>
<path d="M85.1074 87.9594H87.1509V99.6325H85.1074V87.9594Z" fill="#004A99"/>
<path d="M87.2391 99.6913H85.1221L85.0486 87.9448L87.1656 87.8712L87.2391 99.6913ZM87.0921 87.9448L85.1221 88.0183L85.1956 99.6178L87.0921 99.5443V87.9448Z" fill="#004A99"/>
<path d="M89.8706 90.8262H91.8847V92.1935C92.4581 91.3555 93.2667 90.6498 94.6339 90.6498C96.6186 90.6498 97.7653 91.9876 97.7653 94.0312V99.6324H95.7512V94.6339C95.7512 93.2667 95.075 92.4875 93.8694 92.4875C92.6639 92.4875 91.8847 93.3108 91.8847 94.6633V99.6324H89.8706V90.8262Z" fill="#004A99"/>
<path d="M97.8389 99.6913H95.7512L95.6777 94.6192C95.6777 93.2961 95.0162 92.5463 93.8694 92.5463C92.7227 92.5463 91.9582 93.3696 91.9582 94.6486V99.6178L89.8706 99.6913L89.7971 90.8115L91.8847 90.738L91.9582 92.1788C92.5463 91.0762 93.4725 90.5616 94.6339 90.5616C96.6186 90.5616 97.8389 91.8847 97.8389 94.0165V99.6913ZM93.8694 92.3993C95.1191 92.3993 95.8248 93.2079 95.8248 94.6192V99.6178L97.6918 99.5443V94.0165C97.6918 91.973 96.5157 90.7086 94.6339 90.7086C93.5019 90.7086 92.6492 91.1938 91.9435 92.2229L91.8112 90.8115L89.8706 90.885L89.9441 99.6178L91.8847 99.5443L91.8112 94.6486C91.8112 93.2814 92.6198 92.3993 93.8694 92.3993Z" fill="#004A99"/>
<path d="M100.456 97.192V92.561H99.3384V90.8262H100.456V88.4151H102.47V90.8262H104.837V92.561H102.47V96.8832C102.47 97.6624 102.867 97.9859 103.558 97.9859C104.013 97.9859 104.41 97.883 104.807 97.6771V99.3237C104.308 99.603 103.734 99.7795 102.984 99.7795C101.5 99.7795 100.456 99.1326 100.456 97.192Z" fill="#004A99"/>
<path d="M102.984 99.853C101.25 99.853 100.382 98.9562 100.382 97.192V92.561L99.3384 92.6345L99.2649 90.8262L100.456 90.7527L100.382 88.4152L102.47 88.3417L102.543 90.8262L104.837 90.7527L104.91 92.561L102.47 92.6345L102.543 96.8833C102.543 97.589 102.867 97.9124 103.558 97.9124C103.984 97.9124 104.381 97.8242 104.778 97.6184L104.881 99.3384C104.293 99.7207 103.705 99.8677 102.984 99.8677V99.853ZM100.456 92.4875L100.529 97.192C100.529 98.8827 101.338 99.706 102.984 99.706C103.661 99.706 104.234 99.559 104.763 99.2649L104.719 97.6772C104.41 97.9565 103.999 98.0447 103.543 98.0447C102.779 98.0447 102.382 97.6478 102.382 96.8686V92.5463L104.822 92.4728L104.749 90.8115L102.455 90.885L102.382 88.4005L100.441 88.474L100.515 90.8115L99.3237 90.885L99.3972 92.5463L100.441 92.4728L100.456 92.4875Z" fill="#004A99"/>
<path d="M105.969 95.2514V95.222C105.969 92.7081 107.748 90.6351 110.262 90.6351C113.07 90.6351 114.481 92.8404 114.481 95.3691C114.481 95.5455 114.466 95.7366 114.452 95.9277H107.983C108.203 97.3685 109.218 98.1623 110.512 98.1623C111.497 98.1623 112.202 97.7948 112.893 97.1038L114.069 98.1623C113.231 99.162 112.085 99.8089 110.467 99.8089C107.924 99.8089 105.954 97.9565 105.954 95.2367L105.969 95.2514ZM112.482 94.6046C112.349 93.3108 111.585 92.2817 110.247 92.2817C109.012 92.2817 108.145 93.2373 107.968 94.6046H112.482Z" fill="#004A99"/>
<path d="M110.482 99.8971C107.821 99.8971 105.895 97.9418 105.895 95.2514C105.895 92.561 107.777 90.5616 110.262 90.5616C113.231 90.5616 114.554 92.9727 114.554 95.369C114.554 95.5601 114.54 95.7366 114.525 95.9424L107.983 96.0159C108.262 97.2655 109.203 98.1035 110.512 98.1035C111.408 98.1035 112.099 97.7948 112.849 97.0744L114.128 98.1182C113.217 99.3384 111.982 99.8971 110.482 99.8971ZM110.262 90.7086C107.851 90.7086 106.042 92.6492 106.042 95.222C106.042 97.7948 107.909 99.7501 110.482 99.7501C111.938 99.7501 113.128 99.2061 114.025 98.1329L112.849 97.1773C112.188 97.9271 111.452 98.2505 110.512 98.2505C109.115 98.2505 108.115 97.3684 107.909 95.9571L114.452 95.8689C114.393 95.7365 114.407 95.5601 114.407 95.3837C114.407 93.0609 113.128 90.7233 110.262 90.7233V90.7086ZM107.968 94.678C108.086 93.1491 109.012 92.2229 110.247 92.2229C111.482 92.2229 112.408 93.1344 112.555 94.6045L107.968 94.678ZM110.247 92.3552C109.086 92.3552 108.218 93.2373 108.042 94.6045L112.482 94.5163C112.261 93.2079 111.438 92.3405 110.247 92.3405V92.3552Z" fill="#004A99"/>
<path d="M116.333 90.8262H118.348V92.811C118.892 91.4878 119.921 90.591 121.464 90.6645V92.7963H121.347C119.583 92.7963 118.348 93.943 118.348 96.2805V99.6325H116.333V90.8262Z" fill="#004A99"/>
<path d="M118.421 99.6913H116.334L116.26 90.8115L118.348 90.738L118.421 92.7963C118.7 91.7671 119.568 90.5763 121.303 90.5763H121.464L121.538 92.8551H121.347C119.494 92.8551 118.421 94.1047 118.421 96.2658V99.6913ZM118.274 90.8115L116.334 90.8851L116.407 99.6178L118.274 99.5443V96.2658C118.274 94.0312 119.421 92.7081 121.347 92.7081L121.391 90.6498L121.303 90.7233C119.641 90.7233 118.818 91.8701 118.421 92.8257L118.274 90.8115Z" fill="#004A99"/>
<path d="M123.052 90.8262H125.066V92.1935C125.639 91.3555 126.448 90.6498 127.815 90.6498C129.8 90.6498 130.947 91.9876 130.947 94.0312V99.6324H128.933V94.6339C128.933 93.2667 128.256 92.4875 127.051 92.4875C125.845 92.4875 125.066 93.3108 125.066 94.6633V99.6324H123.052V90.8262Z" fill="#004A99"/>
<path d="M131.02 99.6913H128.933L128.859 94.6192C128.859 93.2961 128.198 92.5463 127.051 92.5463C125.904 92.5463 125.14 93.3696 125.14 94.6486V99.6178L123.052 99.6913L122.979 90.8115L125.066 90.738L125.14 92.1788C125.742 91.0615 126.639 90.5616 127.815 90.5616C129.785 90.5616 131.02 91.8847 131.02 94.0165V99.6913ZM127.051 92.3993C128.3 92.3993 129.006 93.2079 129.006 94.6192V99.6178L130.873 99.5443V94.0165C130.873 91.973 129.697 90.7086 127.815 90.7086C126.683 90.7086 125.831 91.1938 125.125 92.2229L124.993 90.8115L123.052 90.885L123.126 99.6178L125.066 99.5443L124.993 94.6486C124.993 93.2814 125.801 92.3993 127.051 92.3993Z" fill="#004A99"/>
<path d="M138.592 99.6178V98.5299C137.989 99.2502 137.077 99.7942 135.74 99.7942C134.078 99.7942 132.608 98.8386 132.608 97.0744V97.045C132.608 95.1044 134.122 94.1635 136.181 94.1635C137.254 94.1635 137.93 94.3105 138.621 94.5311V94.3693C138.621 93.1491 137.857 92.4875 136.46 92.4875C135.475 92.4875 134.74 92.7081 133.946 93.0315L133.402 91.4143C134.372 90.988 135.313 90.6792 136.754 90.6792C139.356 90.6792 140.621 92.0465 140.621 94.3987V99.6178H138.621H138.592ZM138.636 95.9277C138.121 95.7219 137.401 95.5749 136.622 95.5749C135.357 95.5749 134.608 96.0894 134.608 96.9421V96.9715C134.608 97.8095 135.357 98.2799 136.313 98.2799C137.651 98.2799 138.65 97.5302 138.65 96.4275V95.9277H138.636Z" fill="#004A99"/>
<path d="M135.74 99.8824C134.196 99.8824 132.535 99.015 132.535 97.0891C132.535 95.1632 133.902 94.1047 136.181 94.1047C137.254 94.1047 137.945 94.2517 138.636 94.4723L138.548 94.384C138.548 93.1932 137.827 92.5758 136.46 92.5758C135.475 92.5758 134.755 92.7963 133.975 93.1197L133.329 91.4584C134.358 90.9292 135.313 90.6351 136.754 90.6351C139.327 90.6351 140.694 91.9436 140.694 94.4282V99.6472L138.621 99.7207L138.548 98.5593C137.974 99.4561 136.96 99.8971 135.769 99.8971L135.74 99.8824ZM136.166 94.2517C133.975 94.2517 132.667 95.2955 132.667 97.0597C132.667 98.9121 134.255 99.7354 135.725 99.7354C136.872 99.7354 137.842 99.3091 138.518 98.5005L138.651 99.6325L140.576 99.559L140.503 94.4134C140.503 92.0318 139.194 90.7675 136.71 90.7675C135.299 90.7675 134.358 91.0615 133.387 91.4878L133.975 93.0168C134.681 92.6346 135.416 92.414 136.416 92.414C137.857 92.414 138.651 93.105 138.651 94.3693V94.5311C137.871 94.384 137.195 94.237 136.137 94.237L136.166 94.2517ZM136.298 98.3682C135.24 98.3682 134.519 97.8095 134.519 96.9862C134.519 96.0453 135.299 95.5161 136.607 95.5161C137.327 95.5161 138.062 95.6484 138.651 95.8689L138.695 96.4423C138.695 97.5596 137.68 98.3682 136.284 98.3682H136.298ZM136.607 95.6631C135.387 95.6631 134.666 96.1482 134.666 96.9568C134.666 97.8389 135.49 98.2211 136.298 98.2211C137.607 98.2211 138.562 97.4714 138.562 96.4423V95.9424C138.048 95.7954 137.313 95.6631 136.622 95.6631H136.607Z" fill="#004A99"/>
<path d="M143.149 97.192V92.561H142.032V90.8262H143.149V88.4151H145.163V90.8262H147.53V92.561H145.163V96.8832C145.163 97.6624 145.56 97.9859 146.251 97.9859C146.707 97.9859 147.104 97.883 147.501 97.6771V99.3237C147.001 99.603 146.442 99.7795 145.692 99.7795C144.208 99.7795 143.164 99.1326 143.164 97.192H143.149Z" fill="#004A99"/>
<path d="M145.692 99.853C143.958 99.853 143.09 98.9562 143.09 97.192V92.561L142.046 92.6345L141.973 90.8262L143.164 90.7527L143.09 88.4152L145.178 88.3417L145.251 90.8262L147.545 90.7527L147.618 92.561L145.178 92.6345L145.251 96.8833C145.251 97.589 145.575 97.9124 146.266 97.9124C146.692 97.9124 147.089 97.8242 147.486 97.6184L147.589 99.3384C147.001 99.7207 146.413 99.8677 145.707 99.8677L145.692 99.853ZM143.164 92.4875L143.237 97.192C143.237 98.8827 144.046 99.706 145.692 99.706C146.369 99.706 146.942 99.559 147.471 99.2649L147.427 97.6772C147.118 97.9565 146.707 98.0447 146.251 98.0447C145.487 98.0447 145.09 97.6478 145.09 96.8686V92.5463L147.53 92.4728L147.457 90.8115L145.163 90.885L145.09 88.4005L143.149 88.474L143.223 90.8115L142.032 90.885L142.105 92.5463L143.149 92.4728L143.164 92.4875Z" fill="#004A99"/>
<path d="M149.427 87.5625H151.588V89.4737H149.427V87.5625ZM149.515 90.8262H151.529V99.6325H149.515V90.8262Z" fill="#004A99"/>
<path d="M151.603 99.6913H149.515L149.441 90.8115L151.529 90.738L151.603 99.6913ZM151.456 90.8115L149.515 90.8851L149.588 99.6178L151.456 99.5443V90.8115ZM151.676 89.5325H149.441L149.368 87.5478L151.603 87.4743L151.676 89.5325ZM151.529 87.5478L149.441 87.6213L149.515 89.459L151.529 89.3855V87.5478Z" fill="#004A99"/>
<path d="M153.514 95.2661V95.2367C153.514 92.7228 155.513 90.6351 158.218 90.6351C160.923 90.6351 162.893 92.6787 162.893 95.2073V95.2367C162.893 97.736 160.894 99.8236 158.174 99.8236C155.454 99.8236 153.514 97.7801 153.514 95.2661ZM160.879 95.2661V95.2367C160.879 93.6784 159.762 92.3993 158.174 92.3993C156.586 92.3993 155.528 93.6637 155.528 95.1926V95.222C155.528 96.751 156.645 98.0594 158.218 98.0594C159.791 98.0594 160.879 96.7804 160.879 95.2661Z" fill="#004A99"/>
<path d="M158.174 99.8971C155.513 99.8971 153.44 97.8683 153.44 95.2661C153.44 92.6639 155.543 90.5616 158.218 90.5616C160.894 90.5616 162.967 92.6051 162.967 95.2073C162.967 97.8095 160.864 99.8971 158.174 99.8971ZM158.203 90.7086C155.601 90.7086 153.572 92.6933 153.572 95.2367C153.572 97.7801 155.587 99.7501 158.159 99.7501C160.732 99.7501 162.805 97.7654 162.805 95.2367C162.805 92.708 160.776 90.7086 158.203 90.7086ZM158.203 98.1476C156.66 98.1476 155.44 96.8686 155.44 95.2367C155.44 93.6048 156.586 92.3258 158.159 92.3258C159.732 92.3258 160.938 93.5754 160.938 95.2367C160.938 96.898 159.791 98.1476 158.203 98.1476ZM158.174 92.4875C156.675 92.4875 155.601 93.6342 155.601 95.2073C155.601 96.7804 156.748 98.0006 158.218 98.0006C159.688 98.0006 160.806 96.8539 160.806 95.2808C160.806 93.7077 159.674 92.4875 158.174 92.4875Z" fill="#004A99"/>
<path d="M164.775 90.8262H166.789V92.1935C167.348 91.3555 168.171 90.6498 169.538 90.6498C171.523 90.6498 172.67 91.9876 172.67 94.0312V99.6324H170.656V94.6339C170.656 93.2667 169.98 92.4875 168.774 92.4875C167.568 92.4875 166.789 93.3108 166.789 94.6633V99.6324H164.775V90.8262Z" fill="#004A99"/>
<path d="M172.743 99.6913H170.656L170.582 94.6192C170.582 93.2961 169.921 92.5463 168.774 92.5463C167.627 92.5463 166.863 93.3696 166.863 94.6486V99.6178L164.775 99.6913L164.702 90.8115L166.789 90.738L166.863 92.1788C167.451 91.0762 168.377 90.5616 169.538 90.5616C171.508 90.5616 172.743 91.8847 172.743 94.0165V99.6913ZM168.774 92.3993C170.024 92.3993 170.729 93.2079 170.729 94.6192V99.6178L172.596 99.5443V94.0165C172.596 91.973 171.42 90.7086 169.538 90.7086C168.406 90.7086 167.554 91.1938 166.848 92.2229L166.716 90.8115L164.775 90.885L164.849 99.6178L166.789 99.5443L166.716 94.6486C166.716 93.2814 167.524 92.3993 168.774 92.3993Z" fill="#004A99"/>
<path d="M180.315 99.6178V98.5299C179.712 99.2502 178.8 99.7942 177.462 99.7942C175.801 99.7942 174.331 98.8386 174.331 97.0744V97.045C174.331 95.1044 175.845 94.1635 177.904 94.1635C178.977 94.1635 179.653 94.3105 180.344 94.5311V94.3693C180.344 93.1491 179.58 92.4875 178.183 92.4875C177.198 92.4875 176.463 92.7081 175.669 93.0315L175.125 91.4143C176.095 90.988 177.036 90.6792 178.477 90.6792C181.079 90.6792 182.343 92.0465 182.343 94.3987V99.6178H180.344H180.315ZM180.359 95.9277C179.844 95.7219 179.124 95.5749 178.345 95.5749C177.08 95.5749 176.33 96.0894 176.33 96.9421V96.9715C176.33 97.8095 177.08 98.2799 178.036 98.2799C179.374 98.2799 180.373 97.5302 180.373 96.4275V95.9277H180.359Z" fill="#004A99"/>
<path d="M177.463 99.8824C175.919 99.8824 174.258 99.015 174.258 97.0891C174.258 95.1632 175.625 94.1047 177.904 94.1047C178.977 94.1047 179.668 94.2517 180.359 94.4723L180.271 94.384C180.271 93.1932 179.55 92.5758 178.183 92.5758C177.198 92.5758 176.478 92.7963 175.698 93.1197L175.051 91.4584C176.081 90.9292 177.036 90.6351 178.477 90.6351C181.05 90.6351 182.417 91.9436 182.417 94.4282V99.6472L180.344 99.7207L180.271 98.5593C179.697 99.4561 178.683 99.8971 177.492 99.8971L177.463 99.8824ZM177.889 94.2517C175.698 94.2517 174.39 95.2955 174.39 97.0597C174.39 98.9121 175.978 99.7354 177.448 99.7354C178.609 99.7354 179.55 99.3238 180.241 98.5005L180.373 99.6325L182.299 99.559L182.226 94.4134C182.226 92.0318 180.917 90.7675 178.433 90.7675C177.021 90.7675 176.081 91.0615 175.11 91.4878L175.698 93.0168C176.404 92.6346 177.139 92.414 178.139 92.414C179.58 92.414 180.373 93.105 180.373 94.3693V94.5311C179.594 94.384 178.918 94.237 177.874 94.237L177.889 94.2517ZM178.021 98.3682C176.963 98.3682 176.242 97.8095 176.242 96.9862C176.242 96.0453 177.021 95.5161 178.33 95.5161C179.05 95.5161 179.785 95.6484 180.373 95.8689L180.418 96.4423C180.418 97.5596 179.403 98.3682 178.006 98.3682H178.021ZM178.345 95.6631C177.124 95.6631 176.404 96.1482 176.404 96.9568C176.404 97.8389 177.227 98.2211 178.036 98.2211C179.344 98.2211 180.3 97.4714 180.3 96.4423V95.9424C179.785 95.7954 179.05 95.6631 178.359 95.6631H178.345Z" fill="#004A99"/>
<path d="M184.652 87.4596H186.666V99.6324H184.652V87.4596Z" fill="#004A99"/>
<path d="M186.754 99.6913H184.666L184.593 87.4449L186.68 87.3714L186.754 99.6766V99.6913ZM186.607 87.4449L184.666 87.5184L184.74 99.6178L186.607 99.5443V87.4449Z" fill="#004A99"/>
<path d="M194.208 87.9594H202.852V89.7971H196.251V92.8257H202.102V94.6633H196.251V97.7948H202.926V99.6325H194.193V87.9594H194.208Z" fill="#004A99"/>
<path d="M202.999 99.6913H194.193L194.119 87.9448L202.837 87.8712L202.911 89.7824L196.236 89.856L196.31 92.811L202.088 92.7375L202.161 94.6487L196.236 94.7222L196.31 97.7801L202.926 97.7066L202.999 99.6913ZM202.764 87.9448L194.193 88.0183L194.266 99.6178L202.852 99.5443V97.7801L196.236 97.8536L196.163 94.6487L202.088 94.5752L202.014 92.811L196.236 92.8845L196.163 89.7824L202.837 89.7089L202.764 87.9448Z" fill="#004A99"/>
<path d="M204.337 95.2367V95.2073C204.337 92.2964 206.322 90.6351 208.424 90.6351C209.879 90.6351 210.791 91.3702 211.423 92.1787V87.4448H213.437V99.6177H211.423V98.1476C210.776 99.0591 209.85 99.7941 208.424 99.7941C206.351 99.7941 204.337 98.1476 204.337 95.2367ZM211.452 95.2367V95.2073C211.452 93.5019 210.247 92.3846 208.909 92.3846C207.571 92.3846 206.38 93.4578 206.38 95.2073V95.2367C206.38 96.9273 207.542 98.0447 208.909 98.0447C210.276 98.0447 211.452 96.9126 211.452 95.2367Z" fill="#004A99"/>
<path d="M208.424 99.8824C206.41 99.8824 204.263 98.2505 204.263 95.2514C204.263 92.2523 206.351 90.5763 208.424 90.5763C209.659 90.5763 210.659 91.0909 211.482 92.1494L211.35 87.4596L213.437 87.3861L213.511 99.6325L211.423 99.706L211.35 98.1623C210.673 99.3385 209.674 99.8824 208.424 99.8824ZM208.424 90.7233C206.425 90.7233 204.41 92.267 204.41 95.222C204.41 98.177 206.425 99.7501 208.424 99.7501C209.629 99.7501 210.585 99.2208 211.364 98.1329L211.497 99.6472L213.437 99.5737L213.364 87.4743L211.423 87.5478L211.497 92.2082C210.57 91.2379 209.615 90.7381 208.424 90.7381V90.7233ZM208.909 98.1329C207.424 98.1329 206.307 96.898 206.307 95.2514C206.307 93.6049 207.41 92.3258 208.909 92.3258C210.409 92.3258 211.526 93.5754 211.526 95.222C211.526 96.8686 210.379 98.1476 208.909 98.1476V98.1329ZM208.909 92.4728C207.454 92.4728 206.454 93.6048 206.454 95.222C206.454 96.8392 207.512 98.0006 208.909 98.0006C210.129 98.0006 211.379 96.9715 211.379 95.2661C211.379 93.6637 210.32 92.4875 208.909 92.4875V92.4728Z" fill="#004A99"/>
<path d="M215.687 96.4275V90.8262H217.701V95.8248C217.701 97.192 218.377 97.9712 219.582 97.9712C220.788 97.9712 221.567 97.1479 221.567 95.7807V90.8115H223.581V99.6178H221.567V98.2505C220.994 99.0885 220.185 99.7942 218.818 99.7942C216.833 99.7942 215.687 98.4564 215.687 96.4128V96.4275Z" fill="#004A99"/>
<path d="M218.818 99.8824C216.848 99.8824 215.613 98.5592 215.613 96.4275V90.8262L217.701 90.7527L217.774 95.8247C217.774 97.1479 218.436 97.8976 219.582 97.8976C220.729 97.8976 221.494 97.0744 221.494 95.7806V90.8115L223.581 90.738L223.655 99.6177L221.567 99.6912L221.494 98.2505C220.891 99.3678 219.994 99.8677 218.818 99.8677V99.8824ZM217.627 90.8262L215.687 90.8997L215.76 96.4275C215.76 98.471 216.936 99.7353 218.818 99.7353C219.95 99.7353 220.803 99.2502 221.508 98.2211L221.641 99.6324L223.581 99.5589L223.508 90.8262L221.567 90.8997L221.641 95.7953C221.641 97.1626 220.832 98.0594 219.582 98.0594C218.333 98.0594 217.627 97.2508 217.627 95.8394V90.8409V90.8262Z" fill="#004A99"/>
<path d="M225.463 95.2661V95.2367C225.463 92.7375 227.389 90.6351 230.021 90.6351C231.682 90.6351 232.726 91.2526 233.534 92.1494L232.285 93.5019C231.667 92.8551 231.02 92.3993 230.006 92.3993C228.536 92.3993 227.477 93.6637 227.477 95.1926V95.222C227.477 96.7804 228.565 98.0594 230.109 98.0594C231.064 98.0594 231.755 97.6037 232.388 96.9568L233.608 98.1623C232.74 99.1326 231.726 99.8089 230.006 99.8089C227.389 99.8089 225.463 97.7654 225.463 95.2514V95.2661Z" fill="#004A99"/>
<path d="M230.006 99.8971C227.418 99.8971 225.39 97.8683 225.39 95.2661C225.39 92.6639 227.433 90.5616 230.021 90.5616C231.52 90.5616 232.623 91.0321 233.593 92.1053L232.343 93.5607C231.711 93.0021 231.064 92.4875 230.006 92.4875C228.624 92.4875 227.551 93.6783 227.551 95.2073C227.551 96.8098 228.653 98.0006 230.109 98.0006C230.917 98.0006 231.608 97.6625 232.343 96.9274L233.667 98.1329C232.932 99.0591 231.917 99.9118 230.021 99.9118L230.006 99.8971ZM230.021 90.7086C227.507 90.7086 225.537 92.6933 225.537 95.2367C225.537 97.7801 227.507 99.7501 230.006 99.7501C231.844 99.7501 232.829 98.9268 233.549 98.1182L232.329 97.0156C231.682 97.7948 230.962 98.1329 230.094 98.1329C228.55 98.1329 227.389 96.8833 227.389 95.222C227.389 93.5607 228.536 92.3111 229.991 92.3111C231.109 92.3111 231.77 92.855 232.329 93.4284L233.476 92.0759C232.535 91.1497 231.476 90.6792 230.006 90.6792L230.021 90.7086Z" fill="#004A99"/>
<path d="M240.665 99.6178V98.5299C240.062 99.2502 239.15 99.7942 237.812 99.7942C236.151 99.7942 234.681 98.8386 234.681 97.0744V97.045C234.681 95.1044 236.195 94.1635 238.253 94.1635C239.327 94.1635 240.003 94.3105 240.679 94.5311V94.3693C240.679 93.1491 239.915 92.4875 238.518 92.4875C237.533 92.4875 236.798 92.7081 236.004 93.0315L235.46 91.4143C236.431 90.988 237.371 90.6792 238.812 90.6792C241.414 90.6792 242.679 92.0465 242.679 94.3987V99.6178H240.679H240.665ZM240.723 95.9277C240.209 95.7219 239.488 95.5749 238.709 95.5749C237.445 95.5749 236.695 96.0894 236.695 96.9421V96.9715C236.695 97.8095 237.445 98.2799 238.401 98.2799C239.738 98.2799 240.738 97.5302 240.738 96.4275V95.9277H240.723Z" fill="#004A99"/>
<path d="M237.812 99.8824C236.269 99.8824 234.607 99.015 234.607 97.0891C234.607 95.1632 235.975 94.1047 238.253 94.1047C239.327 94.1047 240.018 94.2517 240.709 94.4723L240.62 94.384C240.62 93.1932 239.9 92.5758 238.533 92.5758C237.548 92.5758 236.827 92.7963 236.048 93.1197L235.401 91.4584C236.43 90.9292 237.386 90.6351 238.827 90.6351C241.4 90.6351 242.767 91.9436 242.767 94.4282V99.6472L240.694 99.7207L240.62 98.5593C240.047 99.4561 239.033 99.8971 237.842 99.8971L237.812 99.8824ZM238.239 94.2517C236.048 94.2517 234.74 95.2955 234.74 97.0597C234.74 98.9121 236.328 99.7354 237.798 99.7354C238.959 99.7354 239.9 99.3238 240.591 98.5005L240.723 99.6325L242.649 99.559L242.576 94.4134C242.576 92.0318 241.267 90.7675 238.783 90.7675C237.371 90.7675 236.445 91.0615 235.46 91.4878L236.048 93.0168C236.754 92.6346 237.489 92.414 238.489 92.414C239.929 92.414 240.723 93.105 240.723 94.3693V94.5311C239.944 94.384 239.268 94.237 238.224 94.237L238.239 94.2517ZM238.371 98.3682C237.313 98.3682 236.592 97.8095 236.592 96.9862C236.592 96.0453 237.371 95.5161 238.68 95.5161C239.4 95.5161 240.135 95.6484 240.723 95.8689L240.767 96.4423C240.767 97.5596 239.753 98.3682 238.356 98.3682H238.371ZM238.694 95.6631C237.474 95.6631 236.754 96.1482 236.754 96.9568C236.754 97.8389 237.577 98.2211 238.386 98.2211C239.694 98.2211 240.65 97.4714 240.65 96.4423V95.9424C240.356 95.8836 239.665 95.6631 238.709 95.6631H238.694Z" fill="#004A99"/>
<path d="M245.237 97.192V92.561H244.119V90.8262H245.237V88.4151H247.251V90.8262H249.618V92.561H247.251V96.8832C247.251 97.6624 247.648 97.9859 248.339 97.9859C248.794 97.9859 249.191 97.883 249.588 97.6771V99.3237C249.089 99.603 248.515 99.7795 247.765 99.7795C246.281 99.7795 245.237 99.1326 245.237 97.192Z" fill="#004A99"/>
<path d="M247.765 99.853C246.031 99.853 245.163 98.9562 245.163 97.192V92.561L244.119 92.6345L244.046 90.8262L245.237 90.7527L245.163 88.4152L247.251 88.3417L247.324 90.8262L249.618 90.7527L249.691 92.561L247.251 92.6345L247.324 96.8833C247.324 97.589 247.648 97.9124 248.339 97.9124C248.765 97.9124 249.147 97.8242 249.559 97.6184L249.662 99.3384C249.074 99.7207 248.486 99.8677 247.765 99.8677V99.853ZM245.237 92.4875L245.31 97.192C245.31 98.8827 246.119 99.706 247.765 99.706C248.456 99.706 249.015 99.559 249.544 99.2649L249.5 97.6772C249.191 97.9565 248.78 98.0447 248.324 98.0447C247.56 98.0447 247.163 97.6478 247.163 96.8686V92.5463L249.603 92.4728L249.53 90.8115L247.236 90.885L247.163 88.4005L245.222 88.474L245.296 90.8115L244.105 90.885L244.178 92.5463L245.222 92.4728L245.237 92.4875Z" fill="#004A99"/>
<path d="M251.514 87.5625H253.675V89.4737H251.514V87.5625ZM251.602 90.8262H253.617V99.6325H251.602V90.8262Z" fill="#004A99"/>
<path d="M253.675 99.6913H251.588L251.514 90.8115L253.602 90.738L253.675 99.6913ZM253.528 90.8115L251.588 90.8851L251.661 99.6178L253.528 99.5443V90.8115ZM253.734 89.5325H251.5L251.426 87.5478L253.661 87.4743L253.734 89.5325ZM253.587 87.5478L251.5 87.6213L251.573 89.459L253.587 89.3855V87.5478Z" fill="#004A99"/>
<path d="M255.587 95.2661V95.2367C255.587 92.7228 257.586 90.6351 260.291 90.6351C262.996 90.6351 264.981 92.6787 264.981 95.2073V95.2367C264.981 97.736 262.982 99.8236 260.262 99.8236C257.542 99.8236 255.601 97.7801 255.601 95.2661H255.587ZM262.952 95.2661V95.2367C262.952 93.6784 261.835 92.3993 260.262 92.3993C258.689 92.3993 257.615 93.6637 257.615 95.1926V95.222C257.615 96.751 258.733 98.0594 260.291 98.0594C261.85 98.0594 262.952 96.7804 262.952 95.2661Z" fill="#004A99"/>
<path d="M260.262 99.8971C257.601 99.8971 255.528 97.8683 255.528 95.2661C255.528 92.6639 257.63 90.5616 260.306 90.5616C262.982 90.5616 265.069 92.6051 265.069 95.2073C265.069 97.8095 262.967 99.8971 260.276 99.8971H260.262ZM260.291 90.7086C257.704 90.7086 255.66 92.6933 255.66 95.2367C255.66 97.7801 257.674 99.7501 260.247 99.7501C262.82 99.7501 264.893 97.7654 264.893 95.2367C264.893 92.708 262.864 90.7086 260.276 90.7086H260.291ZM260.291 98.1476C258.747 98.1476 257.542 96.8686 257.542 95.2367C257.542 93.6048 258.689 92.3258 260.262 92.3258C261.835 92.3258 263.026 93.5754 263.026 95.2367C263.026 96.898 261.879 98.1476 260.291 98.1476ZM260.262 92.4875C258.762 92.4875 257.689 93.6342 257.689 95.2073C257.689 96.7804 258.836 98.0006 260.291 98.0006C261.747 98.0006 262.879 96.8539 262.879 95.2808C262.879 93.7077 261.747 92.4875 260.247 92.4875H260.262Z" fill="#004A99"/>
<path d="M266.848 90.8262H268.862V92.1935C269.436 91.3555 270.244 90.6498 271.611 90.6498C273.596 90.6498 274.743 91.9876 274.743 94.0312V99.6324H272.729V94.6339C272.729 93.2667 272.052 92.4875 270.847 92.4875C269.641 92.4875 268.862 93.3108 268.862 94.6633V99.6324H266.848V90.8262Z" fill="#004A99"/>
<path d="M274.816 99.6913H272.729L272.655 94.6192C272.655 93.2961 271.994 92.5463 270.847 92.5463C269.7 92.5463 268.936 93.3696 268.936 94.6486V99.6178L266.848 99.6913L266.775 90.8115L268.862 90.738L268.936 92.1788C269.524 91.0762 270.45 90.5616 271.611 90.5616C273.596 90.5616 274.816 91.8847 274.816 94.0165V99.6913ZM270.847 92.3993C272.096 92.3993 272.802 93.2079 272.802 94.6192V99.6178L274.669 99.5443V94.0165C274.669 91.973 273.493 90.7086 271.611 90.7086C270.479 90.7086 269.627 91.1938 268.921 92.2229L268.789 90.8115L266.848 90.885L266.922 99.6178L268.862 99.5443L268.789 94.6486C268.789 93.2814 269.597 92.3993 270.847 92.3993Z" fill="#004A99"/>
</g>
<defs>
<clipPath id="clip0_2719_2197">
<rect width="290.9" height="100" fill="white"/>
</clipPath>
</defs>
</svg>
